<?xml version="1.0" encoding="iso-8859-1"?>
<!-- Generator: Adobe Illustrator 19.0.0, SVG Export Plug-In . SVG Version: 6.00 Build 0)  -->
<svg version="1.1" id="Layer_1" xmlns="http://www.w3.org/2000/svg" xmlns:xlink="http://www.w3.org/1999/xlink" x="0px" y="0px"
	 viewBox="0 0 512 512" style="enable-background:new 0 0 512 512;" xml:space="preserve">
<path style="fill:#D8D9DD;" d="M249.503,470.693c49.508,0,103.885,2.968,153.354-46.501s73.076-83.123,93.712-114.768
	c56.111-86.047-56.273-186.475-90.743-210.738c-33.181-23.356-80.14-57.384-130.599-57.384s-126.641-1.979-154.344,25.724
	s-71.236,71.236-95.97,95.97s-38.586,88.055-4.946,145.439S123.851,470.693,249.503,470.693z"/>
<g>
	<path style="fill:#B7B9C0;" d="M405.825,98.685c-33.181-23.356-80.14-57.384-130.599-57.384c-6.078,0-12.532-0.028-19.227-0.03
		v429.436c47.74,0.147,99.543,0.801,146.857-46.514c49.469-49.469,73.076-83.124,93.712-114.768
		C552.679,223.377,440.295,122.95,405.825,98.685z"/>
	<circle style="fill:#B7B9C0;" cx="270.848" cy="141.245" r="32.501"/>
	<path style="fill:#B7B9C0;" d="M97.43,195.186c-44.43,0-81.995,29.361-94.372,69.736c3.043,14.411,8.487,29.147,16.908,43.513
		c13.555,23.122,33.059,53.955,59.73,82.531c5.756,1.045,11.676,1.619,17.733,1.619c54.51,0,98.7-44.19,98.7-98.7
		S151.94,195.186,97.43,195.186z"/>
</g>
<g>
	<path style="fill:#9B9DA6;" d="M481.066,332.479C470.982,288.675,431.775,256,384.909,256c-54.51,0-98.7,44.189-98.7,98.699
		c0,48.149,34.485,88.223,80.1,96.925c12.377-6.61,24.606-15.489,36.548-27.431C440.588,386.462,463.268,357.934,481.066,332.479z"
		/>
	<path style="fill:#9B9DA6;" d="M270.848,108.745c-5.352,0-10.396,1.302-14.848,3.593v57.807c4.452,2.292,9.496,3.593,14.848,3.593
		c17.948,0,32.496-14.55,32.496-32.496S288.796,108.745,270.848,108.745z"/>
</g>
<g>
</g>
<g>
</g>
<g>
</g>
<g>
</g>
<g>
</g>
<g>
</g>
<g>
</g>
<g>
</g>
<g>
</g>
<g>
</g>
<g>
</g>
<g>
</g>
<g>
</g>
<g>
</g>
<g>
</g>
</svg>
