<svg width="1548" height="432" viewBox="0 0 1548 432" fill="none" xmlns="http://www.w3.org/2000/svg">
<path d="M409.409 357.658C441.756 324.984 468.745 247.655 428.45 182.2C362.63 75.2798 93.4034 -9.8499 75.9073 0.920829C70.4791 4.26244 74.2171 25.1598 83.2804 55.0953C38.9951 46.2048 6.52901 43.5148 1.42952 47.8301C-5.05695 53.3191 11.2346 68.077 36.0523 90.5584C66.8294 118.438 110.719 158.196 140.54 206.885C154.604 240.003 168.721 271.209 180.487 295.176C220.466 376.609 270.543 387.484 307.077 390.979C343.61 394.475 377.061 390.332 409.409 357.658Z" fill="url(#paint0_linear_69_766)"/>
<circle cx="321.252" cy="267.739" r="119.293" transform="rotate(-31.6167 321.252 267.739)" fill="url(#paint1_linear_69_766)"/>
<path d="M600.902 268.271H579.789L571.669 244.501H534.315L526.194 268.271H505.376L540.959 170.826H565.32L600.902 268.271ZM538.892 229.441H567.092L552.918 186.919L538.892 229.441Z" fill="black"/>
<path d="M642.386 269.748C634.905 269.748 628.064 268.419 621.863 265.761C615.761 263.104 610.79 259.363 606.951 254.54L618.615 242.729C620.978 246.272 624.127 249.176 628.064 251.44C632.002 253.704 636.677 254.836 642.091 254.836C645.93 254.836 648.981 254.294 651.245 253.212C653.607 252.03 654.788 250.209 654.788 247.749C654.788 246.174 654.247 244.845 653.164 243.762C652.081 242.581 649.916 241.646 646.668 240.957L633.675 238.299C625.112 236.528 619.009 233.87 615.367 230.327C611.824 226.685 610.052 222.009 610.052 216.3C610.052 212.265 611.233 208.475 613.595 204.932C616.056 201.388 619.698 198.534 624.521 196.368C629.344 194.104 635.348 192.972 642.534 192.972C649.916 192.972 656.314 194.154 661.728 196.516C667.24 198.78 671.571 202.176 674.72 206.703L662.613 218.515C660.448 215.07 657.593 212.462 654.05 210.69C650.605 208.82 646.963 207.885 643.124 207.885C640.368 207.885 638.006 208.18 636.037 208.77C634.069 209.361 632.592 210.198 631.608 211.28C630.624 212.265 630.131 213.544 630.131 215.119C630.131 216.694 630.821 218.072 632.199 219.253C633.577 220.336 636.087 221.271 639.728 222.058L654.788 225.159C662.072 226.635 667.289 229.145 670.439 232.689C673.588 236.134 675.163 240.317 675.163 245.239C675.163 249.963 673.884 254.196 671.324 257.936C668.864 261.578 665.173 264.482 660.251 266.647C655.428 268.714 649.473 269.748 642.386 269.748Z" fill="black"/>
<path d="M717.427 171.859V244.205C717.427 247.749 718.312 250.357 720.084 252.03C721.954 253.605 724.464 254.393 727.614 254.393C730.173 254.393 732.339 254.048 734.11 253.359C735.981 252.572 737.654 251.538 739.13 250.259L742.379 263.694C740.016 265.565 737.063 267.041 733.52 268.124C729.976 269.206 726.236 269.748 722.299 269.748C717.377 269.748 712.997 269.01 709.158 267.533C705.418 266.057 702.465 263.694 700.3 260.446C698.233 257.198 697.199 252.867 697.199 247.453V177.47L717.427 171.859ZM741.05 194.449V209.509H683.616V194.449H741.05Z" fill="black"/>
<path d="M788.988 269.748C781.212 269.748 774.421 268.222 768.613 265.171C762.904 262.119 758.475 257.739 755.325 252.03C752.175 246.321 750.601 239.431 750.601 231.36C750.601 223.289 752.175 216.399 755.325 210.69C758.475 204.981 762.855 200.601 768.466 197.549C774.175 194.498 780.671 192.972 787.955 192.972C795.435 192.972 801.784 194.498 807.001 197.549C812.218 200.502 816.204 204.587 818.96 209.804C821.716 214.922 823.094 220.779 823.094 227.374C823.094 229.342 823.045 231.212 822.947 232.984C822.848 234.756 822.701 236.331 822.504 237.709H763.593V223.683H813.645L803.9 227.226C803.9 221.025 802.473 216.251 799.619 212.904C796.863 209.558 792.925 207.885 787.807 207.885C784.067 207.885 780.819 208.77 778.063 210.542C775.405 212.314 773.387 214.972 772.009 218.515C770.631 221.96 769.942 226.34 769.942 231.655C769.942 236.872 770.68 241.203 772.157 244.648C773.732 247.995 775.897 250.505 778.653 252.178C781.508 253.851 784.903 254.688 788.841 254.688C793.172 254.688 796.666 253.851 799.323 252.178C801.981 250.505 804.048 248.192 805.525 245.239L821.618 251.44C820.043 255.279 817.631 258.576 814.383 261.332C811.233 264.088 807.444 266.204 803.015 267.681C798.684 269.059 794.008 269.748 788.988 269.748Z" fill="black"/>
<path d="M840.236 268.271V194.449H857.806L859.135 208.918C861.103 203.8 863.958 199.863 867.698 197.106C871.537 194.35 876.311 192.972 882.02 192.972C883.693 192.972 885.219 193.12 886.597 193.415C887.975 193.711 889.107 194.104 889.992 194.597L887.63 211.576C886.646 211.182 885.415 210.887 883.939 210.69C882.561 210.493 880.74 210.395 878.476 210.395C875.523 210.395 872.669 211.133 869.913 212.609C867.157 213.987 864.893 216.153 863.121 219.106C861.349 221.96 860.463 225.602 860.463 230.031V268.271H840.236Z" fill="black"/>
<path d="M934.745 192.972C942.226 192.972 948.771 194.498 954.382 197.549C960.091 200.601 964.52 204.981 967.67 210.69C970.918 216.399 972.542 223.289 972.542 231.36C972.542 239.333 970.918 246.223 967.67 252.03C964.52 257.739 960.091 262.119 954.382 265.171C948.771 268.222 942.226 269.748 934.745 269.748C927.363 269.748 920.817 268.222 915.108 265.171C909.399 262.119 904.921 257.739 901.673 252.03C898.523 246.223 896.948 239.333 896.948 231.36C896.948 223.289 898.523 216.399 901.673 210.69C904.921 204.981 909.399 200.601 915.108 197.549C920.817 194.498 927.363 192.972 934.745 192.972ZM934.745 208.032C931.005 208.032 927.806 208.918 925.148 210.69C922.589 212.363 920.62 214.922 919.242 218.367C917.864 221.812 917.175 226.143 917.175 231.36C917.175 236.577 917.864 240.908 919.242 244.353C920.62 247.798 922.589 250.406 925.148 252.178C927.806 253.851 931.005 254.688 934.745 254.688C938.387 254.688 941.487 253.851 944.047 252.178C946.704 250.406 948.722 247.798 950.1 244.353C951.478 240.908 952.167 236.577 952.167 231.36C952.167 226.143 951.478 221.812 950.1 218.367C948.722 214.922 946.704 212.363 944.047 210.69C941.487 208.918 938.387 208.032 934.745 208.032Z" fill="black"/>
<path d="M999.655 183.818C995.422 183.818 992.272 182.933 990.205 181.161C988.138 179.291 987.105 176.584 987.105 173.04C987.105 169.398 988.138 166.692 990.205 164.92C992.272 163.05 995.422 162.115 999.655 162.115C1003.89 162.115 1007.04 163.05 1009.1 164.92C1011.17 166.692 1012.2 169.398 1012.2 173.04C1012.2 176.584 1011.17 179.291 1009.1 181.161C1007.04 182.933 1003.89 183.818 999.655 183.818ZM1009.69 194.449V268.271H989.467V194.449H1009.69Z" fill="black"/>
<path d="M1059.04 269.748C1052.94 269.748 1047.48 268.222 1042.65 265.171C1037.93 262.119 1034.19 257.739 1031.43 252.03C1028.77 246.321 1027.45 239.481 1027.45 231.508C1027.45 223.338 1028.87 216.399 1031.73 210.69C1034.58 204.882 1038.42 200.502 1043.24 197.549C1048.16 194.498 1053.68 192.972 1059.78 192.972C1066.28 192.972 1071.64 194.843 1075.87 198.583C1080.11 202.323 1082.86 207.146 1084.14 213.052L1082.22 215.414V162.115H1102.45V268.271H1084.29L1082.96 245.829L1085.32 247.01C1084.73 251.637 1083.21 255.672 1080.75 259.117C1078.28 262.464 1075.18 265.072 1071.44 266.943C1067.7 268.813 1063.57 269.748 1059.04 269.748ZM1064.95 254.245C1068.49 254.245 1071.54 253.359 1074.1 251.587C1076.66 249.717 1078.63 247.01 1080.01 243.467C1081.48 239.924 1082.22 235.691 1082.22 230.77C1082.22 226.045 1081.53 222.058 1080.15 218.81C1078.78 215.464 1076.81 212.904 1074.25 211.133C1071.69 209.361 1068.69 208.475 1065.24 208.475C1059.73 208.475 1055.4 210.444 1052.25 214.381C1049.2 218.22 1047.67 223.879 1047.67 231.36C1047.67 238.841 1049.2 244.55 1052.25 248.487C1055.3 252.326 1059.53 254.245 1064.95 254.245Z" fill="black"/>
<path d="M1244.8 170.826V187.214H1212.17V268.271H1191.79V187.214H1159.02V170.826H1244.8Z" fill="black"/>
<path d="M1249.58 268.271V194.449H1267.15L1268.47 208.918C1270.44 203.8 1273.3 199.863 1277.04 197.106C1280.88 194.35 1285.65 192.972 1291.36 192.972C1293.03 192.972 1294.56 193.12 1295.94 193.415C1297.31 193.711 1298.45 194.104 1299.33 194.597L1296.97 211.576C1295.99 211.182 1294.76 210.887 1293.28 210.69C1291.9 210.493 1290.08 210.395 1287.82 210.395C1284.86 210.395 1282.01 211.133 1279.25 212.609C1276.5 213.987 1274.23 216.153 1272.46 219.106C1270.69 221.96 1269.8 225.602 1269.8 230.031V268.271H1249.58Z" fill="black"/>
<path d="M1322.05 183.818C1317.82 183.818 1314.67 182.933 1312.6 181.161C1310.53 179.291 1309.5 176.584 1309.5 173.04C1309.5 169.398 1310.53 166.692 1312.6 164.92C1314.67 163.05 1317.82 162.115 1322.05 162.115C1326.28 162.115 1329.43 163.05 1331.5 164.92C1333.57 166.692 1334.6 169.398 1334.6 173.04C1334.6 176.584 1333.57 179.291 1331.5 181.161C1329.43 182.933 1326.28 183.818 1322.05 183.818ZM1332.09 194.449V268.271H1311.86V194.449H1332.09Z" fill="black"/>
<path d="M1401.96 194.449H1422.93L1394.87 268.271H1371.55L1343.49 194.449H1365.2L1383.36 252.769L1401.96 194.449Z" fill="black"/>
<path d="M1444.32 183.818C1440.09 183.818 1436.94 182.933 1434.87 181.161C1432.8 179.291 1431.77 176.584 1431.77 173.04C1431.77 169.398 1432.8 166.692 1434.87 164.92C1436.94 163.05 1440.09 162.115 1444.32 162.115C1448.55 162.115 1451.7 163.05 1453.77 164.92C1455.84 166.692 1456.87 169.398 1456.87 173.04C1456.87 176.584 1455.84 179.291 1453.77 181.161C1451.7 182.933 1448.55 183.818 1444.32 183.818ZM1454.36 194.449V268.271H1434.13V194.449H1454.36Z" fill="black"/>
<path d="M1517.88 221.173C1517.88 216.94 1516.65 213.643 1514.19 211.28C1511.83 208.918 1508.68 207.737 1504.74 207.737C1501.1 207.737 1497.9 208.672 1495.14 210.542C1492.39 212.412 1490.37 215.513 1489.09 219.844L1471.82 214.529C1473.49 208.032 1477.13 202.815 1482.74 198.878C1488.45 194.941 1496.08 192.972 1505.63 192.972C1512.12 192.972 1517.78 194.006 1522.61 196.073C1527.43 198.042 1531.17 201.044 1533.83 205.079C1536.58 209.115 1537.96 214.184 1537.96 220.287V250.259C1537.96 253.999 1539.73 255.869 1543.28 255.869C1544.95 255.869 1546.52 255.623 1548 255.131L1546.82 267.681C1544.26 268.96 1541.06 269.6 1537.22 269.6C1533.78 269.6 1530.68 269.01 1527.92 267.828C1525.16 266.647 1523 264.876 1521.42 262.513C1519.85 260.052 1519.06 257.001 1519.06 253.359V252.769L1522.61 252.178C1522.01 255.918 1520.39 259.117 1517.73 261.775C1515.08 264.334 1511.83 266.303 1507.99 267.681C1504.25 269.059 1500.36 269.748 1496.32 269.748C1491.3 269.748 1486.97 269.01 1483.33 267.533C1479.69 265.958 1476.88 263.694 1474.92 260.741C1472.95 257.789 1471.96 254.147 1471.96 249.816C1471.96 244.304 1473.73 239.825 1477.28 236.38C1480.82 232.837 1485.89 230.425 1492.49 229.145L1520.24 223.535L1520.1 236.085L1502.38 239.628C1499.03 240.317 1496.47 241.252 1494.7 242.433C1493.03 243.516 1492.19 245.337 1492.19 247.896C1492.19 250.357 1493.08 252.227 1494.85 253.507C1496.72 254.786 1498.93 255.426 1501.49 255.426C1503.56 255.426 1505.58 255.18 1507.55 254.688C1509.51 254.196 1511.29 253.408 1512.86 252.326C1514.44 251.243 1515.67 249.767 1516.55 247.896C1517.44 246.026 1517.88 243.762 1517.88 241.105V221.173Z" fill="black"/>
<defs>
<linearGradient id="paint0_linear_69_766" x1="64.334" y1="-118.406" x2="383.158" y2="373.603" gradientUnits="userSpaceOnUse">
<stop stop-color="#FF5C00" stop-opacity="0.53"/>
<stop offset="0.718893" stop-color="#FFE600"/>
</linearGradient>
<linearGradient id="paint1_linear_69_766" x1="321.252" y1="148.446" x2="321.252" y2="387.031" gradientUnits="userSpaceOnUse">
<stop stop-color="#E2E2E2" stop-opacity="0.8"/>
<stop offset="1" stop-color="#E2E2E2"/>
</linearGradient>
</defs>
</svg>
