<svg width="179" height="181" viewBox="0 0 179 181" fill="none" xmlns="http://www.w3.org/2000/svg">
<g clip-path="url(#clip0_64_221)">
<path d="M178.69 90.5494C178.678 105.162 175.084 119.548 168.222 132.449C161.36 145.35 151.44 156.372 139.33 164.549C138.15 165.349 136.94 166.129 135.72 166.869C134.5 167.619 133.26 168.329 131.99 169.019C131.36 169.359 130.72 169.699 130.07 170.019C128.79 170.679 127.5 171.299 126.18 171.899L124.18 172.769C122.85 173.329 121.5 173.869 120.18 174.359C119.49 174.609 118.8 174.859 118.11 175.089C108.89 178.205 99.222 179.789 89.4899 179.779C88.6699 179.779 87.8599 179.779 87.0499 179.779H86.5499L84.8999 179.709L83.9699 179.659H83.8599C83.1399 179.659 82.4199 179.559 81.7099 179.499C80.9399 179.429 80.1799 179.359 79.4199 179.269L78.9199 179.209C78.1899 179.129 77.4599 179.029 76.7399 178.929H76.4499C75.7099 178.819 74.9799 178.699 74.2499 178.569C73.5199 178.439 72.9799 178.349 72.3499 178.219C71.9399 178.149 71.5399 178.059 71.1299 177.969H70.9299C70.3199 177.839 69.7099 177.709 69.0999 177.559C68.3199 177.379 67.5299 177.189 66.7599 176.969L66.4699 176.899C66.0299 176.786 65.5999 176.666 65.1799 176.539L64.2499 176.279L64.0599 176.209C63.3399 175.999 62.6299 175.769 61.9199 175.539L61.2499 175.309C61.0365 175.249 60.8266 175.179 60.6199 175.099C60.3799 175.029 60.1399 174.939 59.9099 174.849L59.4899 174.709L59.0099 174.529L57.4999 173.969L57.2699 173.879C56.5099 173.579 55.7599 173.279 55.0199 172.959H54.8899C54.2099 172.669 53.5399 172.379 52.8899 172.079L52.7499 172.019L52.3999 171.849C51.8099 171.579 51.2299 171.309 50.6599 171.029L50.1599 170.779C49.5399 170.469 48.9199 170.159 48.3099 169.839L46.1399 168.659C44.7499 167.879 43.3699 167.059 42.0299 166.199L41.7899 166.049C41.1399 165.639 40.5099 165.219 39.8699 164.789L38.8699 164.089C38.5299 163.869 38.1999 163.629 37.8699 163.389C37.2099 162.909 36.5499 162.389 35.8699 161.939C34.5699 160.939 33.2999 159.916 32.0599 158.869C30.1999 157.279 28.3999 155.629 26.6699 153.869C24.3665 151.566 22.1899 149.139 20.1499 146.599V146.599C19.4299 145.709 18.7299 144.799 18.0399 143.889C17.6899 143.429 17.3499 142.969 17.0399 142.499L16.0399 141.089C15.5199 140.339 15.0399 139.569 14.5199 138.799C13.9999 138.029 13.5199 137.249 13.0799 136.469C12.6399 135.689 12.1499 134.889 11.6999 134.079C11.2499 133.269 10.8199 132.469 10.3999 131.649C9.97989 130.829 9.55991 130.009 9.16991 129.179C8.77991 128.349 8.37988 127.509 8.00988 126.659C7.70988 125.979 7.41989 125.299 7.14989 124.659C6.94989 124.199 6.76989 123.739 6.58989 123.269C6.40989 122.799 6.32989 122.609 6.20989 122.269C6.02989 121.789 5.84992 121.269 5.67992 120.839C5.44992 120.199 5.22988 119.549 5.00988 118.899C4.56988 117.566 4.1599 116.233 3.7799 114.899C3.6199 114.299 3.44992 113.689 3.29992 113.079C3.14992 112.469 2.91987 111.589 2.74987 110.829C2.61987 110.239 2.48992 109.649 2.36992 109.059C2.29992 108.719 2.22991 108.389 2.16991 108.059C2.14125 107.958 2.12118 107.854 2.10991 107.749C2.00991 107.299 1.92991 106.839 1.85991 106.389C1.78991 105.939 1.71991 105.639 1.66991 105.259C1.55658 104.593 1.45659 103.943 1.36992 103.309C1.36992 103.069 1.29989 102.829 1.26989 102.589C1.25943 102.506 1.25943 102.422 1.26989 102.339C1.14989 101.419 1.04989 100.489 0.959889 99.5594C0.899889 98.9094 0.839906 98.2594 0.789906 97.6094C0.739906 96.9594 0.699911 96.4194 0.669911 95.8194C0.669911 95.6494 0.669911 95.4694 0.669911 95.2894C0.669911 94.7594 0.609903 94.2194 0.599903 93.6794C0.589903 93.1394 0.599903 92.3694 0.599903 91.6794C0.599903 91.3894 0.599903 91.0994 0.599903 90.8094C0.581203 68.9765 8.57406 47.8956 23.0632 31.5633C37.5523 15.2311 57.5304 4.78282 79.2099 2.19941C81.2099 1.95941 83.1699 1.78942 85.0899 1.68942C86.6699 1.59942 88.2599 1.55942 89.8599 1.55942C111.594 1.53449 132.584 9.47511 148.86 23.8794V23.8794L150.77 25.6194L150.83 25.6794L151.46 26.2694C151.87 26.6594 152.28 27.0594 152.69 27.4794C160.409 35.1216 166.662 44.1134 171.14 54.0094C171.37 54.5194 171.6 55.0094 171.82 55.5494C172.04 56.0894 172.26 56.5494 172.47 57.0994C172.9 58.0994 173.3 59.1894 173.69 60.2494C173.88 60.7794 174.07 61.3094 174.25 61.8494C174.43 62.3894 174.57 62.7894 174.73 63.2694C174.73 63.4094 174.82 63.5494 174.86 63.6994C175.01 64.1394 175.15 64.5894 175.27 65.0294C175.47 65.6594 175.65 66.2994 175.83 66.9494C175.95 67.3694 176.06 67.7894 176.17 68.2094C176.28 68.6294 176.32 68.7794 176.39 69.0794C176.52 69.5994 176.65 70.0794 176.77 70.6494C176.77 70.7994 176.84 70.9594 176.88 71.1194C177.05 71.8594 177.21 72.5994 177.35 73.3494C177.48 74.0594 177.62 74.7694 177.74 75.4894C177.749 75.5725 177.749 75.6564 177.74 75.7394C177.8 76.0794 177.85 76.4094 177.9 76.7394C178 77.3094 178.09 77.8894 178.16 78.4594C178.23 79.0294 178.31 79.6094 178.38 80.1894C178.45 80.7694 178.5 81.1294 178.53 81.5994L178.59 82.1494C178.7 83.2494 178.78 84.3594 178.84 85.4694C178.84 85.7594 178.84 86.0494 178.84 86.3494C178.84 86.6494 178.84 86.9194 178.84 87.1994C178.84 87.7894 178.89 88.3794 178.89 88.9794C178.89 89.5794 178.69 89.9494 178.69 90.5494Z" fill="url(#paint0_linear_64_221)"/>
<path style="mix-blend-mode:color-dodge" opacity="0.15" d="M178.69 90.5494C178.678 105.162 175.084 119.548 168.222 132.449C161.36 145.35 151.44 156.372 139.33 164.549C138.15 165.349 136.94 166.129 135.72 166.869C134.5 167.619 133.26 168.329 131.99 169.019C131.36 169.359 130.72 169.699 130.07 170.019C128.79 170.679 127.5 171.299 126.18 171.899L124.18 172.769C122.85 173.329 121.5 173.869 120.18 174.359C119.49 174.609 118.8 174.859 118.11 175.089C108.89 178.205 99.222 179.789 89.4899 179.779C88.6699 179.779 87.8599 179.779 87.0499 179.779H86.5499L84.8999 179.709L83.9699 179.659H83.8599C83.1399 179.659 82.4199 179.559 81.7099 179.499C80.9399 179.429 80.1799 179.359 79.4199 179.269L78.9199 179.209C78.1899 179.129 77.4599 179.029 76.7399 178.929H76.4499C75.7099 178.819 74.9799 178.699 74.2499 178.569C73.5199 178.439 72.9799 178.349 72.3499 178.219C71.9399 178.149 71.5399 178.059 71.1299 177.969H70.9299C70.3199 177.839 69.7099 177.709 69.0999 177.559C68.3199 177.379 67.5299 177.189 66.7599 176.969L66.4699 176.899C66.0299 176.786 65.5999 176.666 65.1799 176.539L64.2499 176.279L64.0599 176.209C63.3399 175.999 62.6299 175.769 61.9199 175.539L61.2499 175.309C61.0365 175.249 60.8266 175.179 60.6199 175.099C60.3799 175.029 60.1399 174.939 59.9099 174.849L59.4899 174.709L59.0099 174.529L57.4999 173.969L57.2699 173.879C56.5099 173.579 55.7599 173.279 55.0199 172.959H54.8899C54.2099 172.669 53.5399 172.379 52.8899 172.079L52.7499 172.019L52.3999 171.849C51.8099 171.579 51.2299 171.309 50.6599 171.029L50.1599 170.779C49.5399 170.469 48.9199 170.159 48.3099 169.839L46.1399 168.659C44.7499 167.879 43.3699 167.059 42.0299 166.199L41.7899 166.049C41.1399 165.639 40.5099 165.219 39.8699 164.789L38.8699 164.089C38.5299 163.869 38.1999 163.629 37.8699 163.389C37.2099 162.909 36.5499 162.389 35.8699 161.939C34.5699 160.939 33.2999 159.916 32.0599 158.869C30.1999 157.279 28.3999 155.629 26.6699 153.869C24.3665 151.566 22.1899 149.139 20.1499 146.599V146.599C19.4299 145.709 18.7299 144.799 18.0399 143.889C17.6899 143.429 17.3499 142.969 17.0399 142.499L16.0399 141.089C15.5199 140.339 15.0399 139.569 14.5199 138.799C13.9999 138.029 13.5199 137.249 13.0799 136.469C12.6399 135.689 12.1499 134.889 11.6999 134.079C11.2499 133.269 10.8199 132.469 10.3999 131.649C9.97989 130.829 9.55991 130.009 9.16991 129.179C8.77991 128.349 8.37988 127.509 8.00988 126.659C7.70988 125.979 7.41989 125.299 7.14989 124.659C6.94989 124.199 6.76989 123.739 6.58989 123.269C6.40989 122.799 6.32989 122.609 6.20989 122.269C6.02989 121.789 5.84992 121.269 5.67992 120.839C5.44992 120.199 5.22988 119.549 5.00988 118.899C4.56988 117.566 4.1599 116.233 3.7799 114.899C3.6199 114.299 3.44992 113.689 3.29992 113.079C3.14992 112.469 2.91987 111.589 2.74987 110.829C2.61987 110.239 2.48992 109.649 2.36992 109.059C2.29992 108.719 2.22991 108.389 2.16991 108.059C2.14125 107.958 2.12118 107.854 2.10991 107.749C2.00991 107.299 1.92991 106.839 1.85991 106.389C1.78991 105.939 1.71991 105.639 1.66991 105.259C1.55658 104.593 1.45659 103.943 1.36992 103.309C1.36992 103.069 1.29989 102.829 1.26989 102.589C1.25943 102.506 1.25943 102.422 1.26989 102.339C1.14989 101.419 1.04989 100.489 0.959889 99.5594C0.899889 98.9094 0.839906 98.2594 0.789906 97.6094C0.739906 96.9594 0.699911 96.4194 0.669911 95.8194C0.669911 95.6494 0.669911 95.4694 0.669911 95.2894C0.669911 94.7594 0.609903 94.2194 0.599903 93.6794C0.589903 93.1394 0.599903 92.3694 0.599903 91.6794C0.599903 91.3894 0.599903 91.0994 0.599903 90.8094C0.581203 68.9765 8.57406 47.8956 23.0632 31.5633C37.5523 15.2311 57.5304 4.78282 79.2099 2.19941C81.2099 1.95941 83.1699 1.78942 85.0899 1.68942C86.6699 1.59942 88.2599 1.55942 89.8599 1.55942C111.594 1.53449 132.584 9.47511 148.86 23.8794V23.8794L150.77 25.6194L150.83 25.6794L151.46 26.2694C151.87 26.6594 152.28 27.0594 152.69 27.4794C160.409 35.1216 166.662 44.1134 171.14 54.0094C171.37 54.5194 171.6 55.0094 171.82 55.5494C172.04 56.0894 172.26 56.5494 172.47 57.0994C172.9 58.0994 173.3 59.1894 173.69 60.2494C173.88 60.7794 174.07 61.3094 174.25 61.8494C174.43 62.3894 174.57 62.7894 174.73 63.2694C174.73 63.4094 174.82 63.5494 174.86 63.6994C175.01 64.1394 175.15 64.5894 175.27 65.0294C175.47 65.6594 175.65 66.2994 175.83 66.9494C175.95 67.3694 176.06 67.7894 176.17 68.2094C176.28 68.6294 176.32 68.7794 176.39 69.0794C176.52 69.5994 176.65 70.0794 176.77 70.6494C176.77 70.7994 176.84 70.9594 176.88 71.1194C177.05 71.8594 177.21 72.5994 177.35 73.3494C177.48 74.0594 177.62 74.7694 177.74 75.4894C177.749 75.5725 177.749 75.6564 177.74 75.7394C177.8 76.0794 177.85 76.4094 177.9 76.7394C178 77.3094 178.09 77.8894 178.16 78.4594C178.23 79.0294 178.31 79.6094 178.38 80.1894C178.45 80.7694 178.5 81.1294 178.53 81.5994L178.59 82.1494C178.7 83.2494 178.78 84.3594 178.84 85.4694C178.84 85.7594 178.84 86.0494 178.84 86.3494C178.84 86.6494 178.84 86.9194 178.84 87.1994C178.84 87.7894 178.89 88.3794 178.89 88.9794C178.89 89.5794 178.69 89.9494 178.69 90.5494Z" fill="url(#paint1_linear_64_221)"/>
<path d="M178.69 90.5494C178.678 105.162 175.084 119.548 168.222 132.449C161.36 145.35 151.44 156.372 139.33 164.549C138.15 165.349 136.94 166.129 135.72 166.869C134.5 167.619 133.26 168.329 131.99 169.019C131.36 169.359 130.72 169.699 130.07 170.019C128.79 170.679 127.5 171.299 126.18 171.899L124.18 172.769C122.85 173.329 121.5 173.869 120.18 174.359C119.49 174.609 118.8 174.859 118.11 175.089C108.89 178.205 99.222 179.789 89.4899 179.779C88.6699 179.779 87.8599 179.779 87.0499 179.779H86.5499L84.8999 179.709L83.9699 179.659H83.8599C83.1399 179.659 82.4199 179.559 81.7099 179.499C80.9399 179.429 80.1799 179.359 79.4199 179.269L78.9199 179.209C78.1899 179.129 77.4599 179.029 76.7399 178.929H76.4499C75.7099 178.819 74.9799 178.699 74.2499 178.569C73.5199 178.439 72.9799 178.349 72.3499 178.219C71.9399 178.149 71.5399 178.059 71.1299 177.969H70.9299C70.3199 177.839 69.7099 177.709 69.0999 177.559C68.3199 177.379 67.5299 177.189 66.7599 176.969L66.4699 176.899C66.0299 176.786 65.5999 176.666 65.1799 176.539L64.2499 176.279L64.0599 176.209C63.3399 175.999 62.6299 175.769 61.9199 175.539L61.2499 175.309C61.0365 175.249 60.8266 175.179 60.6199 175.099C60.3799 175.029 60.1399 174.939 59.9099 174.849L59.4899 174.709L59.0099 174.529L57.4999 173.969L57.2699 173.879C56.5099 173.579 55.7599 173.279 55.0199 172.959H54.8899C54.2099 172.669 53.5399 172.379 52.8899 172.079L52.7499 172.019L52.3999 171.849C51.8099 171.579 51.2299 171.309 50.6599 171.029L50.1599 170.779C49.5399 170.469 48.9199 170.159 48.3099 169.839L46.1399 168.659C44.7499 167.879 43.3699 167.059 42.0299 166.199L41.7899 166.049C41.1399 165.639 40.5099 165.219 39.8699 164.789L38.8699 164.089C38.5299 163.869 38.1999 163.629 37.8699 163.389C37.2099 162.909 36.5499 162.389 35.8699 161.939C34.5699 160.939 33.2999 159.916 32.0599 158.869C30.1999 157.279 28.3999 155.629 26.6699 153.869C24.3665 151.566 22.1899 149.139 20.1499 146.599V146.599C19.4299 145.709 18.7299 144.799 18.0399 143.889C17.6899 143.429 17.3499 142.969 17.0399 142.499L16.0399 141.089C15.5199 140.339 15.0399 139.569 14.5199 138.799C13.9999 138.029 13.5199 137.249 13.0799 136.469C12.6399 135.689 12.1499 134.889 11.6999 134.079C11.2499 133.269 10.8199 132.469 10.3999 131.649C9.97989 130.829 9.55991 130.009 9.16991 129.179C8.77991 128.349 8.37988 127.509 8.00988 126.659C7.70988 125.979 7.41989 125.299 7.14989 124.659C6.94989 124.199 6.76989 123.739 6.58989 123.269C6.40989 122.799 6.32989 122.609 6.20989 122.269C6.02989 121.789 5.84992 121.269 5.67992 120.839C5.44992 120.199 5.22988 119.549 5.00988 118.899C4.56988 117.566 4.1599 116.233 3.7799 114.899C3.6199 114.299 3.44992 113.689 3.29992 113.079C3.14992 112.469 2.91987 111.589 2.74987 110.829C2.61987 110.239 2.48992 109.649 2.36992 109.059C2.29992 108.719 2.22991 108.389 2.16991 108.059C2.14125 107.958 2.12118 107.854 2.10991 107.749C2.00991 107.299 1.92991 106.839 1.85991 106.389C1.78991 105.939 1.71991 105.639 1.66991 105.259C1.55658 104.593 1.45659 103.943 1.36992 103.309C1.36992 103.069 1.29989 102.829 1.26989 102.589C1.25943 102.506 1.25943 102.422 1.26989 102.339C1.14989 101.419 1.04989 100.489 0.959889 99.5594C0.899889 98.9094 0.839906 98.2594 0.789906 97.6094C0.739906 96.9594 0.699911 96.4194 0.669911 95.8194C0.669911 95.6494 0.669911 95.4694 0.669911 95.2894C0.669911 94.7594 0.609903 94.2194 0.599903 93.6794C0.589903 93.1394 0.599903 92.3694 0.599903 91.6794C0.599903 91.3894 0.599903 91.0994 0.599903 90.8094C0.581203 68.9765 8.57406 47.8956 23.0632 31.5633C37.5523 15.2311 57.5304 4.78282 79.2099 2.19941C81.2099 1.95941 83.1699 1.78942 85.0899 1.68942C86.6699 1.59942 88.2599 1.55942 89.8599 1.55942C111.594 1.53449 132.584 9.47511 148.86 23.8794V23.8794L150.77 25.6194L150.83 25.6794L151.46 26.2694C151.87 26.6594 152.28 27.0594 152.69 27.4794C160.409 35.1216 166.662 44.1134 171.14 54.0094C171.37 54.5194 171.6 55.0094 171.82 55.5494C172.04 56.0894 172.26 56.5494 172.47 57.0994C172.9 58.0994 173.3 59.1894 173.69 60.2494C173.88 60.7794 174.07 61.3094 174.25 61.8494C174.43 62.3894 174.57 62.7894 174.73 63.2694C174.73 63.4094 174.82 63.5494 174.86 63.6994C175.01 64.1394 175.15 64.5894 175.27 65.0294C175.47 65.6594 175.65 66.2994 175.83 66.9494C175.95 67.3694 176.06 67.7894 176.17 68.2094C176.28 68.6294 176.32 68.7794 176.39 69.0794C176.52 69.5994 176.65 70.0794 176.77 70.6494C176.77 70.7994 176.84 70.9594 176.88 71.1194C177.05 71.8594 177.21 72.5994 177.35 73.3494C177.48 74.0594 177.62 74.7694 177.74 75.4894C177.749 75.5725 177.749 75.6564 177.74 75.7394C177.8 76.0794 177.85 76.4094 177.9 76.7394C178 77.3094 178.09 77.8894 178.16 78.4594C178.23 79.0294 178.31 79.6094 178.38 80.1894C178.45 80.7694 178.5 81.1294 178.53 81.5994L178.59 82.1494C178.7 83.2494 178.78 84.3594 178.84 85.4694C178.84 85.7594 178.84 86.0494 178.84 86.3494C178.84 86.6494 178.84 86.9194 178.84 87.1994C178.84 87.7894 178.89 88.3794 178.89 88.9794C178.89 89.5794 178.69 89.9494 178.69 90.5494Z" fill="url(#paint2_linear_64_221)"/>
<path style="mix-blend-mode:color-dodge" opacity="0.15" d="M178.69 90.5494C178.678 105.162 175.084 119.548 168.222 132.449C161.36 145.35 151.44 156.372 139.33 164.549C138.15 165.349 136.94 166.129 135.72 166.869C134.5 167.619 133.26 168.329 131.99 169.019C131.36 169.359 130.72 169.699 130.07 170.019C128.79 170.679 127.5 171.299 126.18 171.899L124.18 172.769C122.85 173.329 121.5 173.869 120.18 174.359C119.49 174.609 118.8 174.859 118.11 175.089C108.89 178.205 99.222 179.789 89.4899 179.779C88.6699 179.779 87.8599 179.779 87.0499 179.779H86.5499L84.8999 179.709L83.9699 179.659H83.8599C83.1399 179.659 82.4199 179.559 81.7099 179.499C80.9399 179.429 80.1799 179.359 79.4199 179.269L78.9199 179.209C78.1899 179.129 77.4599 179.029 76.7399 178.929H76.4499C75.7099 178.819 74.9799 178.699 74.2499 178.569C73.5199 178.439 72.9799 178.349 72.3499 178.219C71.9399 178.149 71.5399 178.059 71.1299 177.969H70.9299C70.3199 177.839 69.7099 177.709 69.0999 177.559C68.3199 177.379 67.5299 177.189 66.7599 176.969L66.4699 176.899C66.0299 176.786 65.5999 176.666 65.1799 176.539L64.2499 176.279L64.0599 176.209C63.3399 175.999 62.6299 175.769 61.9199 175.539L61.2499 175.309C61.0365 175.249 60.8266 175.179 60.6199 175.099C60.3799 175.029 60.1399 174.939 59.9099 174.849L59.4899 174.709L59.0099 174.529L57.4999 173.969L57.2699 173.879C56.5099 173.579 55.7599 173.279 55.0199 172.959H54.8899C54.2099 172.669 53.5399 172.379 52.8899 172.079L52.7499 172.019L52.3999 171.849C51.8099 171.579 51.2299 171.309 50.6599 171.029L50.1599 170.779C49.5399 170.469 48.9199 170.159 48.3099 169.839L46.1399 168.659C44.7499 167.879 43.3699 167.059 42.0299 166.199L41.7899 166.049C41.1399 165.639 40.5099 165.219 39.8699 164.789L38.8699 164.089C38.5299 163.869 38.1999 163.629 37.8699 163.389C37.2099 162.909 36.5499 162.389 35.8699 161.939C34.5699 160.939 33.2999 159.916 32.0599 158.869C30.1999 157.279 28.3999 155.629 26.6699 153.869C24.3665 151.566 22.1899 149.139 20.1499 146.599V146.599C19.4299 145.709 18.7299 144.799 18.0399 143.889C17.6899 143.429 17.3499 142.969 17.0399 142.499L16.0399 141.089C15.5199 140.339 15.0399 139.569 14.5199 138.799C13.9999 138.029 13.5199 137.249 13.0799 136.469C12.6399 135.689 12.1499 134.889 11.6999 134.079C11.2499 133.269 10.8199 132.469 10.3999 131.649C9.97989 130.829 9.55991 130.009 9.16991 129.179C8.77991 128.349 8.37988 127.509 8.00988 126.659C7.70988 125.979 7.41989 125.299 7.14989 124.659C6.94989 124.199 6.76989 123.739 6.58989 123.269C6.40989 122.799 6.32989 122.609 6.20989 122.269C6.02989 121.789 5.84992 121.269 5.67992 120.839C5.44992 120.199 5.22988 119.549 5.00988 118.899C4.56988 117.566 4.1599 116.233 3.7799 114.899C3.6199 114.299 3.44992 113.689 3.29992 113.079C3.14992 112.469 2.91987 111.589 2.74987 110.829C2.61987 110.239 2.48992 109.649 2.36992 109.059C2.29992 108.719 2.22991 108.389 2.16991 108.059C2.14125 107.958 2.12118 107.854 2.10991 107.749C2.00991 107.299 1.92991 106.839 1.85991 106.389C1.78991 105.939 1.71991 105.639 1.66991 105.259C1.55658 104.593 1.45659 103.943 1.36992 103.309C1.36992 103.069 1.29989 102.829 1.26989 102.589C1.25943 102.506 1.25943 102.422 1.26989 102.339C1.14989 101.419 1.04989 100.489 0.959889 99.5594C0.899889 98.9094 0.839906 98.2594 0.789906 97.6094C0.739906 96.9594 0.699911 96.4194 0.669911 95.8194C0.669911 95.6494 0.669911 95.4694 0.669911 95.2894C0.669911 94.7594 0.609903 94.2194 0.599903 93.6794C0.589903 93.1394 0.599903 92.3694 0.599903 91.6794C0.599903 91.3894 0.599903 91.0994 0.599903 90.8094C0.581203 68.9765 8.57406 47.8956 23.0632 31.5633C37.5523 15.2311 57.5304 4.78282 79.2099 2.19941C81.2099 1.95941 83.1699 1.78942 85.0899 1.68942C86.6699 1.59942 88.2599 1.55942 89.8599 1.55942C111.594 1.53449 132.584 9.47511 148.86 23.8794V23.8794L150.77 25.6194L150.83 25.6794L151.46 26.2694C151.87 26.6594 152.28 27.0594 152.69 27.4794C160.409 35.1216 166.662 44.1134 171.14 54.0094C171.37 54.5194 171.6 55.0094 171.82 55.5494C172.04 56.0894 172.26 56.5494 172.47 57.0994C172.9 58.0994 173.3 59.1894 173.69 60.2494C173.88 60.7794 174.07 61.3094 174.25 61.8494C174.43 62.3894 174.57 62.7894 174.73 63.2694C174.73 63.4094 174.82 63.5494 174.86 63.6994C175.01 64.1394 175.15 64.5894 175.27 65.0294C175.47 65.6594 175.65 66.2994 175.83 66.9494C175.95 67.3694 176.06 67.7894 176.17 68.2094C176.28 68.6294 176.32 68.7794 176.39 69.0794C176.52 69.5994 176.65 70.0794 176.77 70.6494C176.77 70.7994 176.84 70.9594 176.88 71.1194C177.05 71.8594 177.21 72.5994 177.35 73.3494C177.48 74.0594 177.62 74.7694 177.74 75.4894C177.749 75.5725 177.749 75.6564 177.74 75.7394C177.8 76.0794 177.85 76.4094 177.9 76.7394C178 77.3094 178.09 77.8894 178.16 78.4594C178.23 79.0294 178.31 79.6094 178.38 80.1894C178.45 80.7694 178.5 81.1294 178.53 81.5994L178.59 82.1494C178.7 83.2494 178.78 84.3594 178.84 85.4694C178.84 85.7594 178.84 86.0494 178.84 86.3494C178.84 86.6494 178.84 86.9194 178.84 87.1994C178.84 87.7894 178.89 88.3794 178.89 88.9794C178.89 89.5794 178.69 89.9494 178.69 90.5494Z" fill="url(#paint3_linear_64_221)"/>
<g style="mix-blend-mode:screen" opacity="0.5">
<g style="mix-blend-mode:screen" opacity="0.5">
<path d="M47.72 49.3494C43.57 49.9694 39.3501 50.6194 35.5601 52.4394C31.7701 54.2594 28.4401 57.4394 27.5601 61.5594C26.8301 64.7394 27.5601 68.1694 26.5601 71.2594C25.5601 74.3494 22.6501 76.8894 22.5601 80.1694C22.5878 81.3099 22.8938 82.4263 23.4515 83.4215C24.0093 84.4167 24.8017 85.2605 25.76 85.8794C27.6883 87.112 29.9128 87.8028 32.2 87.8794C42.31 88.5394 51.42 82.3394 61.07 79.2794C64.56 78.1794 68.44 77.2794 70.72 74.4394C73.3 71.2094 72.85 66.3394 70.77 62.7694C68.69 59.1994 65.29 56.6194 61.98 54.1394C58.1 51.2194 53.77 48.1394 48.92 48.4194L47.72 49.3494Z" fill="#8A2612"/>
</g>
</g>
<g style="mix-blend-mode:multiply" opacity="0.5">
<g style="mix-blend-mode:multiply" opacity="0.5">
<path d="M47.8499 47.4694C43.6899 48.0994 39.4699 48.7394 35.6899 50.5594C31.9099 52.3794 28.5599 55.5594 27.6299 59.6794C26.9099 62.8594 27.6299 66.2994 26.6299 69.3794C25.6299 72.4594 22.7299 75.0094 22.6299 78.2994C22.6565 79.439 22.961 80.5548 23.517 81.5499C24.0729 82.545 24.8634 83.3893 25.8199 84.0094C27.7525 85.2405 29.9798 85.9312 32.2699 86.0094C42.3699 86.6694 51.4799 80.4594 61.1399 77.4094C64.6199 76.2994 68.5099 75.4094 70.7899 72.5694C73.3599 69.3294 72.9199 64.4694 70.8399 60.8894C68.7599 57.3094 65.3599 54.7394 62.0499 52.2594C58.1599 49.3494 53.8299 46.2594 48.9799 46.5494L47.8499 47.4694Z" fill="#8A2612"/>
</g>
</g>
<g style="mix-blend-mode:multiply" opacity="0.1">
<g style="mix-blend-mode:multiply" opacity="0.1">
<path d="M71.6499 62.5294C69.5699 59.0594 66.2299 56.5294 62.9799 54.0894C59.0999 51.1794 54.7699 48.0894 49.9199 48.3794L48.7699 49.3794C44.6199 49.9994 40.4 50.6494 36.62 52.4694C32.84 54.2894 29.49 57.4694 28.56 61.5894C27.83 64.7694 28.56 68.1994 27.56 71.2894C26.56 74.3794 23.65 76.9194 23.56 80.2094C23.5478 80.844 23.6424 81.4762 23.8399 82.0794C23.0485 80.9978 22.6276 79.6896 22.6399 78.3494C22.7199 75.0694 25.5599 72.5494 26.6399 69.4294C27.7199 66.3094 26.9299 62.9194 27.6399 59.7394C28.5699 55.6394 31.9199 52.4394 35.6999 50.6194C39.4799 48.7994 43.6999 48.1494 47.8499 47.5194L48.9999 46.5694C53.8499 46.3094 58.1799 49.3694 62.0699 52.2794C65.3699 54.7594 68.7699 57.3394 70.8499 60.9194C71.1542 61.4366 71.4215 61.9746 71.6499 62.5294V62.5294Z" fill="#7F1508"/>
</g>
</g>
<g style="mix-blend-mode:screen" opacity="0.5">
<g style="mix-blend-mode:screen" opacity="0.5">
<path d="M113.03 24.5994C112.61 24.6794 112.19 24.7794 111.78 24.8794C110.413 25.1734 109.074 25.5883 107.78 26.1194C106.97 26.4894 105.85 27.2894 106.32 28.3194C106.524 28.6683 106.809 28.9631 107.15 29.1794C109.37 30.9694 110.15 33.9494 111.15 36.5994C112.15 39.2494 114.04 42.0594 116.88 42.3594C119.37 42.6194 121.56 40.8294 123.42 39.1594L126.85 36.0894C128.85 34.2794 131.02 32.2494 131.43 29.5694C131.544 28.9934 131.478 28.3962 131.24 27.8594C130.75 26.8594 129.55 26.5694 128.49 26.3494L119.76 24.5094C118.453 24.1815 117.108 24.0268 115.76 24.0494C115.126 24.1356 114.498 24.2625 113.88 24.4294L113.03 24.5994Z" fill="#8A2612"/>
</g>
</g>
<g style="mix-blend-mode:multiply" opacity="0.5">
<g style="mix-blend-mode:multiply" opacity="0.5">
<path d="M113.03 23.8794C112.61 23.9694 112.19 24.0594 111.78 24.1694C110.413 24.4633 109.074 24.8783 107.78 25.4094C106.97 25.7794 105.85 26.5694 106.32 27.5994C106.523 27.9514 106.808 28.2497 107.15 28.4694C109.37 30.2594 110.15 33.2294 111.15 35.8794C112.15 38.5294 114.04 41.3394 116.88 41.6394C119.37 41.8994 121.56 40.1194 123.42 38.4494L126.85 35.3794C128.85 33.5694 131.02 31.5394 131.43 28.8594C131.544 28.2802 131.478 27.6797 131.24 27.1394C130.75 26.1394 129.55 25.8594 128.49 25.6294L119.76 23.7894C117.858 23.1584 115.808 23.1304 113.89 23.7094L113.03 23.8794Z" fill="#8A2612"/>
</g>
</g>
<g style="mix-blend-mode:multiply" opacity="0.1">
<g style="mix-blend-mode:multiply" opacity="0.1">
<path d="M131.5 28.5394C131.473 28.2717 131.398 28.011 131.28 27.7694C130.78 26.7694 129.59 26.4894 128.53 26.2594L119.8 24.4294C118.493 24.097 117.148 23.9423 115.8 23.9694C115.164 24.058 114.533 24.1815 113.91 24.3394L113.06 24.5094L111.81 24.7994C110.443 25.0934 109.104 25.5083 107.81 26.0394C107.139 26.2871 106.591 26.7854 106.28 27.4294C106.01 26.4294 107.04 25.7594 107.81 25.4294C109.104 24.8983 110.443 24.4834 111.81 24.1894L113.06 23.8994L113.91 23.7294C114.533 23.5715 115.164 23.448 115.8 23.3594C117.148 23.3323 118.493 23.487 119.8 23.8194L128.53 25.6494C129.59 25.8794 130.78 26.1994 131.28 27.1594C131.48 27.5901 131.556 28.0679 131.5 28.5394Z" fill="#7F1508"/>
</g>
</g>
<g style="mix-blend-mode:screen" opacity="0.5">
<g style="mix-blend-mode:screen" opacity="0.5">
<path d="M129.65 71.7394C128.205 71.9059 126.8 72.3256 125.5 72.9794C124.856 73.3178 124.31 73.817 123.916 74.4285C123.522 75.04 123.292 75.7431 123.25 76.4694C123.25 78.5694 125.36 80.0594 126.03 82.0594C126.25 82.6894 126.31 83.3694 126.48 84.0094C126.734 85.0305 127.283 85.9542 128.058 86.6655C128.833 87.3768 129.801 87.8442 130.84 88.0094C132.32 88.0955 133.781 87.6405 134.95 86.7294C136.104 85.8238 137.142 84.7792 138.04 83.6194C138.469 83.1992 138.782 82.6757 138.95 82.0994C139.24 80.7894 138.11 79.6494 137.17 78.6994C135.295 76.8199 133.774 74.6181 132.68 72.1994L129.65 71.7394Z" fill="#8A2612"/>
</g>
</g>
<g style="mix-blend-mode:multiply" opacity="0.5">
<g style="mix-blend-mode:multiply" opacity="0.5">
<path d="M129.65 70.7394C128.205 70.9059 126.8 71.3256 125.5 71.9794C124.856 72.3178 124.31 72.817 123.916 73.4285C123.522 74.04 123.292 74.7431 123.25 75.4694C123.25 77.5694 125.36 79.0594 126.03 81.0594C126.25 81.6894 126.31 82.3694 126.48 83.0094C126.734 84.0305 127.283 84.9542 128.058 85.6655C128.833 86.3768 129.801 86.8442 130.84 87.0094C132.32 87.0955 133.781 86.6405 134.95 85.7294C136.104 84.8238 137.142 83.7792 138.04 82.6194C138.469 82.1992 138.782 81.6757 138.95 81.0994C139.24 79.7894 138.11 78.6494 137.17 77.6994C135.295 75.8199 133.774 73.6181 132.68 71.1994L129.65 70.7394Z" fill="#8A2612"/>
</g>
</g>
<g style="mix-blend-mode:multiply" opacity="0.1">
<g style="mix-blend-mode:multiply" opacity="0.1">
<path d="M138.95 81.0994C138.954 81.1192 138.954 81.1397 138.95 81.1594C138.582 80.2004 137.976 79.3506 137.19 78.6894C135.315 76.8136 133.794 74.6151 132.7 72.1994L129.7 71.7394C128.255 71.9059 126.85 72.3256 125.55 72.9794C124.985 73.2879 124.494 73.7163 124.113 74.2345C123.731 74.7528 123.467 75.3484 123.34 75.9794C123.33 75.8229 123.33 75.6659 123.34 75.5094C123.382 74.7831 123.612 74.08 124.006 73.4685C124.4 72.857 124.946 72.3578 125.59 72.0194C126.89 71.3656 128.295 70.9459 129.74 70.7794L132.74 71.2394C133.834 73.6551 135.355 75.8536 137.23 77.7294C138.11 78.6394 139.24 79.7894 138.95 81.0994Z" fill="#7F1508"/>
</g>
</g>
<g style="mix-blend-mode:screen" opacity="0.5">
<g style="mix-blend-mode:screen" opacity="0.5">
<path d="M161.65 46.9794C160.812 46.8726 159.961 46.94 159.151 47.1775C158.34 47.4149 157.588 47.8173 156.94 48.3594C156.818 48.4523 156.718 48.572 156.65 48.7094C156.59 48.8879 156.59 49.0809 156.65 49.2594C156.856 49.9546 157.218 50.5934 157.709 51.1266C158.201 51.6598 158.808 52.0731 159.484 52.3349C160.16 52.5966 160.887 52.6998 161.609 52.6365C162.332 52.5731 163.03 52.3449 163.65 51.9694C163.934 51.8274 164.184 51.6263 164.384 51.3797C164.585 51.1331 164.73 50.8466 164.81 50.5394C164.837 50.1807 164.767 49.8215 164.606 49.4994C164.446 49.1774 164.202 48.9044 163.9 48.7094C163.31 48.2994 162.55 47.1294 161.9 46.9594L161.65 46.9794Z" fill="#8A2612"/>
</g>
</g>
<g style="mix-blend-mode:multiply" opacity="0.5">
<g style="mix-blend-mode:multiply" opacity="0.5">
<path d="M161.65 46.6694C160.812 46.5626 159.961 46.63 159.151 46.8675C158.34 47.1049 157.588 47.5073 156.94 48.0494C156.817 48.1378 156.718 48.2544 156.65 48.3894C156.59 48.5713 156.59 48.7675 156.65 48.9494C156.856 49.6446 157.218 50.2834 157.709 50.8166C158.201 51.3498 158.808 51.7631 159.484 52.0249C160.16 52.2866 160.887 52.3898 161.609 52.3264C162.332 52.2631 163.03 52.0349 163.65 51.6594C163.932 51.5148 164.181 51.313 164.381 51.0667C164.58 50.8205 164.727 50.5353 164.81 50.2294C164.837 49.8707 164.766 49.5115 164.606 49.1894C164.446 48.8674 164.202 48.5944 163.9 48.3994C163.31 47.9894 162.55 46.8094 161.9 46.6494L161.65 46.6694Z" fill="#8A2612"/>
</g>
</g>
<g style="mix-blend-mode:multiply" opacity="0.1">
<g style="mix-blend-mode:multiply" opacity="0.1">
<path d="M164.81 50.2794C164.699 49.7311 164.376 49.2491 163.91 48.9394C163.32 48.5294 162.56 47.3594 161.91 47.1894H161.71C160.872 47.085 160.022 47.1536 159.212 47.3909C158.402 47.6283 157.649 48.0294 157 48.5694C156.887 48.6539 156.794 48.7634 156.73 48.8894C156.68 48.7299 156.68 48.5589 156.73 48.3994C156.798 48.262 156.898 48.1423 157.02 48.0494C157.669 47.5094 158.422 47.1083 159.232 46.8709C160.042 46.6336 160.892 46.565 161.73 46.6694H161.93C162.63 46.8394 163.39 48.0094 163.93 48.4194C164.231 48.6206 164.472 48.9 164.627 49.2276C164.782 49.5552 164.846 49.9187 164.81 50.2794V50.2794Z" fill="#8A2612"/>
</g>
</g>
<g style="mix-blend-mode:screen" opacity="0.5">
<g style="mix-blend-mode:screen" opacity="0.5">
<path d="M157.12 122.399C156.112 122.503 155.134 122.802 154.24 123.279C153.797 123.524 153.435 123.893 153.199 124.341C152.963 124.789 152.862 125.295 152.91 125.799C153.084 126.359 153.415 126.857 153.864 127.234C154.312 127.612 154.859 127.853 155.44 127.929C156.14 128.117 156.871 128.159 157.588 128.054C158.305 127.949 158.993 127.699 159.61 127.319C160.216 126.922 160.684 126.348 160.953 125.676C161.221 125.003 161.276 124.264 161.11 123.559C161.069 123.367 160.959 123.196 160.8 123.079C160.668 123.007 160.52 122.969 160.37 122.969L158.09 122.779L157.12 122.399Z" fill="#8A2612"/>
</g>
</g>
<g style="mix-blend-mode:multiply" opacity="0.5">
<g style="mix-blend-mode:multiply" opacity="0.5">
<path d="M157.12 121.939C156.112 122.034 155.132 122.33 154.24 122.809C153.795 123.055 153.432 123.426 153.196 123.875C152.96 124.325 152.86 124.834 152.91 125.339C153.087 125.896 153.419 126.392 153.867 126.767C154.315 127.142 154.86 127.383 155.44 127.459C156.14 127.647 156.871 127.689 157.588 127.584C158.305 127.479 158.993 127.229 159.61 126.849C160.215 126.452 160.684 125.878 160.952 125.206C161.221 124.533 161.276 123.794 161.11 123.089C161.067 122.898 160.957 122.728 160.8 122.609C160.668 122.537 160.52 122.499 160.37 122.499L158.09 122.309L157.12 121.939Z" fill="#8A2612"/>
</g>
</g>
<g style="mix-blend-mode:screen" opacity="0.5">
<g style="mix-blend-mode:screen" opacity="0.5">
<path d="M92.74 126.509C88.3114 127.748 84.181 129.874 80.6 132.759C79.9579 133.23 79.4029 133.808 78.96 134.469C78.518 135.319 78.3472 136.283 78.4705 137.233C78.5939 138.182 79.0056 139.071 79.65 139.779C80.9831 141.176 82.7851 142.031 84.71 142.179C90.15 142.819 95.26 139.729 99.86 136.759C101.026 136.059 102.127 135.256 103.15 134.359C104.63 132.979 105.78 130.839 104.99 128.979C104.2 127.119 101.91 126.459 99.9 126.209C98.0882 125.998 96.2624 125.931 94.44 126.009L92.74 126.509Z" fill="#8A2612"/>
</g>
</g>
<g style="mix-blend-mode:multiply" opacity="0.1">
<g style="mix-blend-mode:multiply" opacity="0.1">
<path d="M161.2 124.279C161.189 124.123 161.159 123.968 161.11 123.819C161.067 123.628 160.957 123.458 160.8 123.339C160.667 123.271 160.52 123.233 160.37 123.229L158.09 123.039L157.09 122.669C156.081 122.763 155.102 123.059 154.21 123.539C153.874 123.741 153.582 124.009 153.353 124.327C153.125 124.645 152.964 125.007 152.88 125.389C152.88 125.389 152.88 125.389 152.88 125.389C152.836 124.883 152.94 124.376 153.177 123.927C153.415 123.478 153.777 123.108 154.22 122.859C155.114 122.383 156.092 122.088 157.1 121.989L158.1 122.359L160.38 122.549C160.53 122.553 160.677 122.591 160.81 122.659C160.969 122.78 161.08 122.954 161.12 123.149C161.221 123.517 161.248 123.901 161.2 124.279V124.279Z" fill="#8A2612"/>
</g>
</g>
<g style="mix-blend-mode:multiply" opacity="0.5">
<g style="mix-blend-mode:multiply" opacity="0.5">
<path d="M92.74 125.569C88.3131 126.812 84.1835 128.938 80.6 131.819C79.9579 132.29 79.4029 132.868 78.96 133.529C78.5166 134.378 78.345 135.343 78.4684 136.293C78.5918 137.243 79.0043 138.132 79.65 138.839C80.9831 140.236 82.7852 141.091 84.71 141.239C90.15 141.889 95.26 138.789 99.86 135.819C101.028 135.122 102.129 134.319 103.15 133.419C104.63 132.039 105.78 129.899 104.99 128.039C104.2 126.179 101.91 125.519 99.9 125.279C98.0889 125.06 96.2627 124.989 94.44 125.069L92.74 125.569Z" fill="#8A2612"/>
</g>
</g>
<g style="mix-blend-mode:multiply" opacity="0.1">
<g style="mix-blend-mode:multiply" opacity="0.1">
<path d="M105.19 129.939C105.148 129.697 105.081 129.459 104.99 129.229C104.2 127.359 101.91 126.709 99.8999 126.469C98.0888 126.25 96.2626 126.179 94.4399 126.259L92.74 126.759C88.313 128.002 84.1834 130.128 80.5999 133.009C79.9578 133.48 79.4028 134.058 78.9599 134.719C78.6932 135.163 78.5196 135.656 78.4499 136.169C78.3126 135.26 78.4927 134.331 78.9599 133.539C79.4 132.876 79.9555 132.297 80.5999 131.829C84.183 128.945 88.3125 126.816 92.74 125.569L94.4399 125.069C96.2626 124.989 98.0888 125.06 99.8999 125.279C101.9 125.519 104.2 126.179 104.99 128.039C105.239 128.64 105.308 129.3 105.19 129.939V129.939Z" fill="#8A2612"/>
</g>
</g>
<g style="mix-blend-mode:screen" opacity="0.5">
<g style="mix-blend-mode:screen" opacity="0.5">
<path d="M76.5699 161.039C75.0642 161.32 73.5949 161.769 72.1899 162.379C70.7999 162.989 69.3099 163.999 69.1899 165.509C69.2002 166.122 69.3907 166.718 69.7375 167.223C70.0843 167.728 70.572 168.12 71.14 168.349C72.2854 168.778 73.5099 168.956 74.73 168.869C76.303 168.931 77.8728 168.683 79.35 168.139C80.0836 167.857 80.7345 167.395 81.243 166.796C81.7515 166.197 82.1012 165.479 82.2599 164.709C82.3416 164.145 82.2844 163.57 82.0932 163.033C81.902 162.496 81.5826 162.014 81.1628 161.629C80.743 161.244 80.2354 160.967 79.6842 160.822C79.133 160.678 78.5548 160.67 77.9999 160.799L76.5699 161.039Z" fill="#8A2612"/>
</g>
</g>
<g style="mix-blend-mode:multiply" opacity="0.5">
<g style="mix-blend-mode:multiply" opacity="0.5">
<path d="M76.5699 160.409C75.0638 160.693 73.5945 161.146 72.1899 161.759C70.7999 162.359 69.3099 163.369 69.1899 164.889C69.2009 165.501 69.3917 166.095 69.7385 166.598C70.0853 167.102 70.5728 167.492 71.14 167.719C72.283 168.158 73.5095 168.336 74.73 168.239C76.303 168.301 77.8728 168.053 79.35 167.509C80.0846 167.229 80.7364 166.767 81.2451 166.168C81.7538 165.568 82.1029 164.85 82.2599 164.079C82.3398 163.516 82.2812 162.942 82.0892 162.407C81.8972 161.871 81.5776 161.391 81.158 161.006C80.7385 160.622 80.2316 160.346 79.6813 160.202C79.1311 160.058 78.5539 160.05 77.9999 160.179L76.5699 160.409Z" fill="#8A2612"/>
</g>
</g>
<g style="mix-blend-mode:multiply" opacity="0.1">
<g style="mix-blend-mode:multiply" opacity="0.1">
<path d="M81.62 161.499C81.21 161.201 80.7415 160.992 80.2452 160.887C79.7488 160.781 79.2359 160.782 78.74 160.889L77.28 161.129C75.7738 161.408 74.3044 161.858 72.8999 162.469C71.5099 163.069 70.0199 164.079 69.8999 165.599C69.8748 166.223 70.0774 166.834 70.47 167.319C70.0724 167.052 69.7474 166.69 69.524 166.266C69.3007 165.841 69.1859 165.369 69.1899 164.889C69.2899 163.379 70.7799 162.359 72.1899 161.759C73.5943 161.148 75.0638 160.698 76.5699 160.419L78.03 160.179C78.5848 160.06 79.1602 160.072 79.7092 160.216C80.2583 160.361 80.7656 160.632 81.1899 161.009C81.3488 161.158 81.4929 161.322 81.62 161.499V161.499Z" fill="#8A2612"/>
</g>
</g>
<g style="mix-blend-mode:screen" opacity="0.5">
<g style="mix-blend-mode:screen" opacity="0.5">
<path d="M40.09 151.549C37.789 147.59 36.0713 143.319 34.99 138.869C34.5377 136.518 33.9059 134.204 33.1 131.949C32.2712 129.67 30.6047 127.793 28.4399 126.699C26.8915 126.124 25.2374 125.889 23.59 126.009C22.1014 126.038 20.6156 126.151 19.1399 126.349C17.3899 126.589 15.36 127.189 14.8 128.869C14.31 130.319 15.19 131.869 16.04 133.109C20.0116 139.006 24.3536 144.644 29.04 149.989C30.96 152.179 33.0399 154.389 35.8199 155.329C36.4495 155.594 37.1324 155.706 37.8134 155.657C38.4944 155.609 39.1544 155.4 39.74 155.049C40.83 154.229 41.0499 152.289 39.8799 151.589L40.09 151.549Z" fill="#8A2612"/>
</g>
</g>
<g style="mix-blend-mode:multiply" opacity="0.5">
<g style="mix-blend-mode:multiply" opacity="0.5">
<path d="M40.6901 150.949C38.3891 146.99 36.6714 142.719 35.5901 138.269C35.1378 135.915 34.5059 133.598 33.7001 131.339C32.8709 129.063 31.2042 127.189 29.0401 126.099C27.4917 125.524 25.8375 125.289 24.1901 125.409C22.7015 125.438 21.2157 125.551 19.7401 125.749C17.9901 125.989 15.9601 126.589 15.4001 128.269C14.9101 129.719 15.7901 131.269 16.6401 132.509C20.6141 138.404 24.956 144.042 29.6401 149.389C31.5601 151.579 33.6401 153.789 36.4201 154.729C37.0499 154.995 37.7335 155.107 38.415 155.056C39.0964 155.006 39.7562 154.794 40.3401 154.439C41.4301 153.629 41.6501 151.689 40.4801 150.979L40.6901 150.949Z" fill="#8A2612"/>
</g>
</g>
<g style="mix-blend-mode:multiply" opacity="0.1">
<g style="mix-blend-mode:multiply" opacity="0.1">
<path d="M40.38 154.449L40.25 154.539C40.5761 154.102 40.7188 153.554 40.6479 153.012C40.5769 152.471 40.298 151.979 39.8701 151.639H40.04C37.7417 147.678 36.021 143.408 34.9301 138.959C34.4872 136.603 33.8586 134.286 33.05 132.029C32.2167 129.752 30.5466 127.878 28.38 126.789C26.8369 126.206 25.1851 125.967 23.54 126.089C22.0512 126.121 20.5655 126.238 19.09 126.439C17.911 126.547 16.7754 126.938 15.78 127.579C16.6 126.439 18.27 125.979 19.78 125.789C21.2555 125.588 22.7412 125.471 24.23 125.439C25.8784 125.317 27.5335 125.556 29.08 126.139C31.2416 127.232 32.9074 129.105 33.7401 131.379C34.5472 133.637 35.1791 135.954 35.63 138.309C36.7113 142.756 38.4291 147.024 40.73 150.979H40.5601C41.6901 151.689 41.47 153.639 40.38 154.449Z" fill="#8A2612"/>
</g>
</g>
<g style="mix-blend-mode:screen" opacity="0.5">
<g style="mix-blend-mode:screen" opacity="0.5">
<path d="M8.82988 99.7294C8.57839 99.3941 8.25228 99.1219 7.87737 98.9345C7.50246 98.747 7.08907 98.6494 6.66991 98.6494C6.25075 98.6494 5.8373 98.747 5.46239 98.9345C5.08748 99.1219 4.76137 99.3941 4.50988 99.7294C4.2208 100.248 4.02456 100.813 3.92992 101.399C3.76564 101.904 3.74487 102.444 3.86992 102.959C4.23177 103.657 4.85294 104.185 5.5999 104.429C6.48918 104.91 7.45818 105.225 8.45989 105.359C8.95434 105.407 9.4527 105.324 9.90416 105.116C10.3556 104.909 10.7441 104.586 11.0299 104.179C11.8699 102.749 10.7099 100.939 9.37987 99.9294L8.82988 99.7294Z" fill="#8A2612"/>
</g>
</g>
<g style="mix-blend-mode:multiply" opacity="0.5">
<g style="mix-blend-mode:multiply" opacity="0.5">
<path d="M8.82988 99.2794C8.57716 98.9459 8.25065 98.6754 7.8759 98.4892C7.50116 98.3029 7.08838 98.206 6.66991 98.206C6.25144 98.206 5.83867 98.3029 5.46392 98.4892C5.08917 98.6754 4.7626 98.9459 4.50988 99.2794C4.2208 99.7981 4.02456 100.363 3.92992 100.949C3.76564 101.454 3.74487 101.994 3.86992 102.509C4.23177 103.207 4.85294 103.735 5.5999 103.979C6.48729 104.464 7.45712 104.78 8.45989 104.909C8.96087 104.966 9.46785 104.886 9.92723 104.678C10.3866 104.471 10.7814 104.143 11.0699 103.729C11.9099 102.289 10.7499 100.479 9.41991 99.4694L8.82988 99.2794Z" fill="#8A2612"/>
</g>
</g>
<g style="mix-blend-mode:multiply" opacity="0.5">
<g style="mix-blend-mode:multiply" opacity="0.5">
<path d="M11.33 102.959C11.0734 101.798 10.3923 100.775 9.42007 100.089L8.83005 99.8894C8.57855 99.5541 8.25244 99.2819 7.87753 99.0945C7.50262 98.907 7.08924 98.8094 6.67007 98.8094C6.25091 98.8094 5.83746 98.907 5.46255 99.0945C5.08764 99.2819 4.76154 99.5541 4.51004 99.8894C4.21665 100.406 4.02013 100.972 3.93008 101.559C3.93008 101.769 3.83008 101.989 3.80008 102.209C3.76441 101.778 3.80848 101.344 3.93008 100.929C4.02174 100.346 4.21819 99.7833 4.51004 99.2694C4.76029 98.9323 5.08601 98.6584 5.46109 98.4697C5.83616 98.281 6.2502 98.1827 6.67007 98.1827C7.08994 98.1827 7.50398 98.281 7.87906 98.4697C8.25413 98.6584 8.5798 98.9323 8.83005 99.2694L9.42007 99.4594C10.5201 100.279 11.51 101.689 11.33 102.959Z" fill="#8A2612"/>
</g>
</g>
<g style="mix-blend-mode:screen" opacity="0.5">
<g style="mix-blend-mode:screen" opacity="0.5">
<path d="M86.0299 81.5694C84.6974 81.4705 83.3588 81.4906 82.0299 81.6294C81.3074 81.603 80.5989 81.8333 80.0299 82.2794C79.7188 82.6436 79.4963 83.0748 79.3799 83.5394C79.0999 84.3394 78.8799 85.3594 79.5199 85.9194C80.5199 86.8194 82.0799 85.2894 83.4299 85.5194C83.8882 85.6596 84.3306 85.8473 84.7499 86.0794C85.1494 86.2141 85.5736 86.2598 85.9926 86.2132C86.4117 86.1667 86.8154 86.029 87.1756 85.8098C87.5358 85.5907 87.8436 85.2953 88.0776 84.9446C88.3115 84.5938 88.4659 84.1962 88.5299 83.7794C88.6599 82.5094 87.3899 81.1094 86.2199 81.6094L86.0299 81.5694Z" fill="#8A2612"/>
</g>
</g>
<g style="mix-blend-mode:multiply" opacity="0.5">
<g style="mix-blend-mode:multiply" opacity="0.5">
<path d="M86.03 81.1594C84.6971 81.0688 83.3589 81.0922 82.03 81.2294C81.3394 81.235 80.6718 81.4787 80.14 81.9194C79.829 82.2799 79.6065 82.7079 79.49 83.1694C79.21 83.9694 78.99 84.9894 79.63 85.5494C80.63 86.4494 82.19 84.9194 83.54 85.1594C83.998 85.2961 84.4405 85.4804 84.86 85.7094C85.2588 85.8441 85.6822 85.8901 86.1006 85.8441C86.519 85.7981 86.9224 85.6613 87.2824 85.4432C87.6424 85.2251 87.9505 84.931 88.185 84.5814C88.4195 84.2318 88.5747 83.8353 88.64 83.4194C88.77 82.1494 87.5 80.7394 86.33 81.2394L86.03 81.1594Z" fill="#8A2612"/>
</g>
</g>
<g style="mix-blend-mode:multiply" opacity="0.5">
<g style="mix-blend-mode:multiply" opacity="0.5">
<path d="M88.5699 83.4194C88.5747 83.496 88.5747 83.5728 88.5699 83.6494C88.3499 82.5794 87.29 81.6494 86.3 82.0594L86.02 81.9794C84.6875 81.8812 83.3489 81.9013 82.02 82.0394C81.3328 82.0473 80.6691 82.2909 80.14 82.7294C79.8308 83.0911 79.6085 83.5186 79.49 83.9794C79.3831 84.2716 79.3027 84.5728 79.2499 84.8794C79.1824 84.2983 79.265 83.7095 79.49 83.1694C79.6065 82.7079 79.829 82.2799 80.14 81.9194C80.6691 81.4809 81.3328 81.2373 82.02 81.2294C83.3489 81.0913 84.6875 81.0712 86.02 81.1694L86.3 81.2494C87.43 80.7494 88.6899 82.1494 88.5699 83.4194Z" fill="#8A2612"/>
</g>
</g>
<g style="mix-blend-mode:multiply" opacity="0.2">
<path style="mix-blend-mode:multiply" opacity="0.2" d="M141.32 33.3294C139.96 31.0394 136.41 30.8894 134.32 32.5094C132.23 34.1294 131.32 36.8994 131.05 39.5594C130.78 42.2194 131.05 44.8994 130.71 47.5594C130.38 49.9894 129.53 52.3194 129.07 54.7294C128.462 57.1299 128.717 59.6678 129.79 61.8994C131 64.0394 133.79 65.4194 136 64.4494C136.746 64.062 137.4 63.5186 137.918 62.856C138.436 62.1934 138.805 61.4272 139 60.6094C139.47 58.9994 139.55 57.2994 139.86 55.6094C140.53 51.9894 142.3 48.6694 143.28 45.1294C144.26 41.5894 144.28 37.4094 141.9 34.6194L141.32 33.3294Z" fill="url(#paint4_linear_64_221)"/>
</g>
<g style="mix-blend-mode:multiply" opacity="0.2">
<path style="mix-blend-mode:multiply" opacity="0.2" d="M85.03 28.5594C81.7192 27.2156 78.5049 25.6452 75.41 23.8594C74.0843 23.0074 72.6691 22.3031 71.19 21.7594C69.4803 21.2814 67.6967 21.1254 65.93 21.2994C58.9022 21.8205 52.303 24.8767 47.36 29.8994C46.17 31.1294 45.01 32.7194 45.36 34.3894C45.89 36.9394 49.16 37.5394 51.72 37.9494C56.56 38.7194 61.1 40.7094 65.83 41.9494C70.56 43.1894 75.83 43.6494 80.17 41.4494C84.51 39.2494 87.43 33.6394 85.3 29.2394L85.03 28.5594Z" fill="url(#paint5_linear_64_221)"/>
</g>
<g style="mix-blend-mode:multiply" opacity="0.2">
<path style="mix-blend-mode:multiply" opacity="0.2" d="M140.45 100.279C138.206 99.834 135.888 99.9373 133.693 100.58C131.497 101.224 129.49 102.388 127.841 103.974C126.192 105.559 124.951 107.52 124.223 109.689C123.495 111.858 123.302 114.17 123.66 116.429C124.32 120.569 126.76 124.229 127.66 128.319C128.29 131.319 128.35 135.079 131.03 136.609C131.873 137.007 132.8 137.199 133.732 137.167C134.664 137.136 135.575 136.883 136.39 136.429C142.27 133.559 143.7 125.969 147.47 120.619C149.34 117.969 151.86 115.799 153.47 112.979C155.08 110.159 155.47 106.239 153.19 103.979C152.106 103.046 150.829 102.363 149.45 101.979C146.827 101.049 144.157 100.258 141.45 99.6094L140.45 100.279Z" fill="url(#paint6_linear_64_221)"/>
</g>
<g style="mix-blend-mode:screen" opacity="0.5">
<path style="mix-blend-mode:screen" opacity="0.5" d="M151.08 26.0094C150.37 25.7494 149.67 25.4694 148.98 25.1494C142.29 22.1494 136.24 17.1494 129.38 14.2594C117.99 9.46941 105.09 10.9494 92.7498 10.2594C92.3598 10.2594 91.9798 10.2594 91.5898 10.1794C83.5898 9.66941 75.5898 8.38941 67.7598 9.83941C57.9098 11.6594 49.3998 17.5994 41.2198 23.3894C35.8698 27.1894 30.4699 31.0194 26.0499 35.8694C20.9499 41.4694 17.3198 48.2294 13.7498 54.8694L7.86986 65.8694C6.65024 68.0249 5.58426 70.2638 4.67986 72.5694C4.57986 72.8494 4.47982 73.1294 4.38982 73.4194C2.38982 79.4894 2.97983 86.2094 2.20983 92.4994C1.96816 94.7895 1.44071 97.0404 0.63982 99.1994C0.57982 98.5494 0.519838 97.8994 0.469838 97.2494C0.419838 96.5994 0.379842 96.0594 0.349842 95.4594C0.349842 95.2894 0.349842 95.1094 0.349842 94.9294C0.349842 94.3994 0.289835 93.8594 0.279835 93.3194C0.269835 92.7794 0.279835 92.0094 0.279835 91.3194C0.279835 91.0294 0.279835 90.7394 0.279835 90.4494C0.261154 67.5977 9.01646 45.6109 24.7386 29.0272C40.4607 12.4435 61.9496 2.52876 84.7698 1.32942C86.3498 1.23942 87.9398 1.19941 89.5398 1.19941C111.274 1.17449 132.264 9.11511 148.54 23.5194V23.5194L150.45 25.2594L150.51 25.3194L151.08 26.0094Z" fill="url(#paint7_linear_64_221)"/>
</g>
<g style="mix-blend-mode:multiply" opacity="0.3">
<g style="mix-blend-mode:multiply" opacity="0.3">
<path d="M34.7698 56.8994C32.9375 57.8649 31.4674 59.3981 30.5798 61.2694C29.9298 62.7194 29.1699 64.8994 30.3699 66.2694C30.4158 66.3134 30.4709 66.3466 30.5313 66.3666C30.5916 66.3867 30.6556 66.3932 30.7188 66.3855C30.7819 66.3779 30.8425 66.3563 30.8963 66.3224C30.9501 66.2885 30.9957 66.2431 31.0299 66.1894C31.8999 65.0294 31.6799 63.2894 32.0899 61.9294C32.6275 60.1076 33.5673 58.4296 34.8399 57.0194C34.8469 57.0089 34.8505 56.9965 34.85 56.9839C34.8496 56.9712 34.8452 56.959 34.8375 56.9491C34.8297 56.9391 34.819 56.9318 34.8068 56.9283C34.7947 56.9248 34.7817 56.9252 34.7698 56.9294V56.8994Z" fill="#7F1508"/>
</g>
</g>
<g style="mix-blend-mode:multiply" opacity="0.3">
<g style="mix-blend-mode:multiply" opacity="0.3">
<path d="M30.4 68.3694L30.61 68.1194L30.4 67.9994C30.1117 68.7443 29.8679 69.5056 29.67 70.2794C29.6002 70.854 29.6002 71.4349 29.67 72.0094C29.6712 72.0724 29.6865 72.1343 29.7148 72.1906C29.7432 72.2468 29.7839 72.296 29.8338 72.3344C29.8837 72.3728 29.9417 72.3995 30.0033 72.4125C30.065 72.4255 30.1287 72.4244 30.1899 72.4094C31.7899 71.9794 30.8499 69.0894 30.6899 67.9994C30.6899 67.8594 30.4499 67.8994 30.4399 67.9994C30.4299 68.0994 30.44 68.2094 30.37 68.3094H30.4499L30.4 68.3694Z" fill="#7F1508"/>
</g>
</g>
<g style="mix-blend-mode:multiply" opacity="0.3">
<g style="mix-blend-mode:multiply" opacity="0.3">
<path d="M62.18 55.7394C60.66 54.2794 58.8199 52.3594 56.6599 51.9294C56.6158 51.9189 56.5693 51.9229 56.5277 51.9409C56.486 51.959 56.4513 51.9901 56.4288 52.0295C56.4063 52.0689 56.3971 52.1146 56.4027 52.1596C56.4084 52.2047 56.4284 52.2467 56.4599 52.2794C57.9199 53.8894 60.27 54.7394 62.12 55.8194C62.12 55.8194 62.23 55.8194 62.18 55.7394V55.7394Z" fill="#7F1508"/>
</g>
</g>
<g style="mix-blend-mode:multiply" opacity="0.3">
<g style="mix-blend-mode:multiply" opacity="0.3">
<path d="M64.86 57.6894C64.73 56.9594 63.72 56.6194 63.09 56.5694C62.97 56.5694 62.97 56.7294 63.09 56.7694C63.4377 56.9136 63.7723 57.0876 64.09 57.2894C64.3166 57.4648 64.5654 57.6094 64.83 57.7194C64.83 57.7194 64.83 57.7194 64.83 57.7194L64.86 57.6894Z" fill="#7F1508"/>
</g>
</g>
<g style="mix-blend-mode:screen" opacity="0.5">
<path style="mix-blend-mode:screen" opacity="0.5" d="M23.4299 45.9994C21.3134 47.5059 19.473 49.3665 17.9899 51.4994C16.6099 53.4094 14.6799 56.1594 14.8799 58.6194C14.8818 58.6753 14.8998 58.7295 14.9318 58.7754C14.9638 58.8213 15.0083 58.8569 15.0601 58.8781C15.1119 58.8992 15.1687 58.9049 15.2237 58.8945C15.2786 58.8841 15.3294 58.858 15.3699 58.8194C16.9099 57.2494 17.5799 54.7294 18.6699 52.8194C20.1096 50.4532 21.7135 48.191 23.4699 46.0494C23.4699 46.0494 23.4699 45.9694 23.4699 45.9994H23.4299Z" fill="url(#paint8_linear_64_221)"/>
</g>
<g style="mix-blend-mode:screen" opacity="0.5">
<path style="mix-blend-mode:screen" opacity="0.5" d="M27.61 40.1194C26.9221 40.5581 26.2819 41.0675 25.6999 41.6394C25.0631 42.1645 24.5276 42.8017 24.12 43.5194C24.1024 43.5488 24.0962 43.5837 24.1025 43.6173C24.1089 43.651 24.1274 43.6811 24.1545 43.7021C24.1816 43.723 24.2154 43.7333 24.2496 43.731C24.2838 43.7286 24.3159 43.7139 24.34 43.6894C24.9134 43.1239 25.4543 42.5263 25.96 41.8994C26.51 41.3194 27.1 40.7694 27.67 40.1994C27.67 40.1994 27.67 40.0994 27.61 40.1194V40.1194Z" fill="url(#paint9_linear_64_221)"/>
</g>
<g style="mix-blend-mode:screen" opacity="0.5">
<path style="mix-blend-mode:screen" opacity="0.5" d="M82.24 11.4094C84.17 11.8094 85.71 13.5894 87.67 14.2194C89.4191 14.7933 91.2754 14.9642 93.1 14.7194C93.95 14.5994 93.73 13.2494 92.91 13.2594C90.7903 13.3466 88.6717 13.0623 86.65 12.4194C85.2 11.9194 83.8299 11.1894 82.2499 11.2794C82.2369 11.2846 82.2259 11.2936 82.218 11.3052C82.2102 11.3167 82.2059 11.3304 82.2059 11.3444C82.2059 11.3584 82.2102 11.3721 82.218 11.3837C82.2259 11.3952 82.2369 11.4042 82.2499 11.4094H82.24Z" fill="url(#paint10_linear_64_221)"/>
</g>
<g style="mix-blend-mode:screen" opacity="0.5">
<path style="mix-blend-mode:screen" opacity="0.5" d="M96.3099 14.0294C97.5173 14.3632 98.7522 14.5874 99.9999 14.6994C100.556 14.7746 101.121 14.7543 101.67 14.6394C102.239 14.4222 102.78 14.1367 103.28 13.7894C103.332 13.762 103.373 13.7177 103.397 13.6638C103.421 13.6099 103.425 13.5495 103.41 13.4926C103.395 13.4357 103.361 13.3855 103.314 13.3504C103.267 13.3154 103.209 13.2974 103.15 13.2994C102.51 13.2199 101.865 13.1798 101.22 13.1794C100.833 13.2358 100.449 13.3126 100.07 13.4094C98.8394 13.6978 97.5831 13.8619 96.3199 13.8994C96.3069 13.9046 96.2957 13.9136 96.2879 13.9252C96.2801 13.9368 96.2759 13.9504 96.2759 13.9644C96.2759 13.9784 96.2801 13.9921 96.2879 14.0037C96.2957 14.0153 96.3069 14.0242 96.3199 14.0294H96.3099Z" fill="url(#paint11_linear_64_221)"/>
</g>
<g style="mix-blend-mode:screen" opacity="0.5">
<path style="mix-blend-mode:screen" opacity="0.5" d="M132.67 19.7094C133.6 20.401 134.458 21.185 135.23 22.0494C136.09 22.8594 136.94 23.6494 137.84 24.3994C137.991 24.5387 138.182 24.6278 138.386 24.6546C138.59 24.6815 138.798 24.6447 138.98 24.5494C139.098 24.5032 139.201 24.4257 139.279 24.3253C139.356 24.2249 139.405 24.1054 139.42 23.9794C139.464 23.7789 139.446 23.5697 139.367 23.38C139.288 23.1904 139.153 23.0295 138.98 22.9194C137.8 22.1394 136.6 21.4194 135.37 20.7294C134.63 20.3094 133.59 19.5094 132.7 19.6194V19.7094H132.67Z" fill="url(#paint12_linear_64_221)"/>
</g>
<g style="mix-blend-mode:multiply" opacity="0.2">
<path style="mix-blend-mode:multiply" opacity="0.2" d="M28.3398 113.329C31.3398 112.389 33.0198 114.579 35.4198 115.869C36.7598 116.599 38.4198 117.519 39.8898 117.119C39.9834 117.092 40.0683 117.04 40.1363 116.97C40.2044 116.9 40.2533 116.814 40.2784 116.72C40.3035 116.625 40.3039 116.526 40.2796 116.431C40.2554 116.337 40.2072 116.25 40.1398 116.179C39.3998 115.279 38.5898 115.179 37.4898 114.819C36.1698 114.329 35.0498 113.619 33.7998 113.029C32.9326 112.615 31.9801 112.411 31.0193 112.434C30.0586 112.457 29.1166 112.705 28.2698 113.159C28.2473 113.169 28.2293 113.187 28.2199 113.209C28.2106 113.232 28.2105 113.257 28.2198 113.279C28.2291 113.302 28.2469 113.32 28.2694 113.329C28.292 113.339 28.3173 113.339 28.3398 113.329V113.329Z" fill="url(#paint13_linear_64_221)"/>
</g>
<g style="mix-blend-mode:multiply" opacity="0.2">
<path style="mix-blend-mode:multiply" opacity="0.2" d="M43.11 117.329C43.76 118.093 44.6294 118.638 45.6 118.889C46.26 119.119 47.9099 119.729 48.2599 118.699C48.5299 117.899 47.51 117.629 46.93 117.589C45.6776 117.379 44.4099 117.272 43.14 117.269C43.14 117.269 43.09 117.269 43.14 117.329H43.11Z" fill="url(#paint14_linear_64_221)"/>
</g>
<g style="mix-blend-mode:multiply" opacity="0.2">
<path style="mix-blend-mode:multiply" opacity="0.2" d="M54.37 118.149C56.19 118.789 59.12 119.249 60.61 117.679C60.6578 117.627 60.6897 117.563 60.7019 117.493C60.7141 117.423 60.706 117.351 60.6786 117.286C60.6512 117.221 60.6057 117.165 60.5475 117.125C60.4892 117.084 60.4207 117.062 60.35 117.059C59.4338 117.112 58.5305 117.3 57.67 117.619C56.5927 117.886 55.4894 118.034 54.3799 118.059V118.149H54.37Z" fill="url(#paint15_linear_64_221)"/>
</g>
<g style="mix-blend-mode:multiply" opacity="0.2">
<path style="mix-blend-mode:multiply" opacity="0.2" d="M66.31 114.539C68.6236 113.034 71.1076 111.809 73.71 110.889C75.8 110.119 78.71 110.249 80.47 109.029C80.5547 108.976 80.6246 108.903 80.673 108.815C80.7214 108.728 80.7468 108.629 80.7468 108.529C80.7468 108.429 80.7214 108.331 80.673 108.244C80.6246 108.156 80.5547 108.082 80.47 108.029C78.24 107.029 74.96 108.379 72.84 109.279C70.2392 110.423 67.9667 112.201 66.23 114.449C66.23 114.499 66.23 114.589 66.31 114.549V114.539Z" fill="url(#paint16_linear_64_221)"/>
</g>
<g style="mix-blend-mode:multiply" opacity="0.2">
<path style="mix-blend-mode:multiply" opacity="0.2" d="M70.6799 107.769C72.1199 107.129 73.5599 106.519 75.0499 106.009C76.2599 105.675 77.4431 105.25 78.5899 104.739C78.8999 104.579 78.7699 104.019 78.4099 104.059C75.6499 104.339 72.8499 106.109 70.6199 107.669C70.6103 107.679 70.6042 107.691 70.6025 107.705C70.6008 107.718 70.6037 107.731 70.6106 107.743C70.6175 107.755 70.6281 107.763 70.6407 107.768C70.6532 107.773 70.6671 107.773 70.6799 107.769V107.769Z" fill="url(#paint17_linear_64_221)"/>
</g>
<g style="mix-blend-mode:multiply" opacity="0.2">
<path style="mix-blend-mode:multiply" opacity="0.2" d="M86.1299 106.279C91.2199 105.459 96.54 103.159 98.61 98.0994C98.8 97.6394 98.17 97.4194 97.87 97.6694C94.09 100.769 90.79 104.369 86.1 106.169C86.0893 106.174 86.0801 106.182 86.0737 106.192C86.0673 106.201 86.064 106.213 86.064 106.224C86.064 106.236 86.0673 106.248 86.0737 106.257C86.0801 106.267 86.0893 106.275 86.1 106.279H86.1299Z" fill="url(#paint18_linear_64_221)"/>
</g>
<g style="mix-blend-mode:multiply" opacity="0.2">
<path style="mix-blend-mode:multiply" opacity="0.2" d="M114.56 84.6094C112.44 84.3394 110.43 86.0094 108.92 87.2594C107.19 88.6794 103.81 90.8294 103.48 93.1994C103.462 93.2712 103.463 93.3463 103.483 93.4175C103.503 93.4887 103.541 93.5536 103.593 93.6058C103.646 93.6581 103.711 93.696 103.782 93.7159C103.853 93.7358 103.928 93.737 104 93.7194C106 93.3194 107.6 90.8494 109 89.4794C110.66 87.6781 112.522 86.0742 114.55 84.6994V84.6094H114.56Z" fill="url(#paint19_linear_64_221)"/>
</g>
<g style="mix-blend-mode:multiply" opacity="0.2">
<path style="mix-blend-mode:multiply" opacity="0.2" d="M148.45 45.7494C148.07 47.1562 147.494 48.5027 146.74 49.7494C145.994 50.7397 145.391 51.8305 144.95 52.9894C144.936 53.042 144.936 53.0975 144.95 53.1501C144.964 53.2028 144.991 53.2508 145.03 53.2893C145.069 53.3278 145.117 53.3555 145.169 53.3696C145.222 53.3837 145.277 53.3836 145.33 53.3694C148.09 52.2794 148.93 48.3694 148.54 45.7194C148.54 45.6694 148.47 45.7194 148.45 45.7194V45.7494Z" fill="url(#paint20_linear_64_221)"/>
</g>
<g style="mix-blend-mode:multiply" opacity="0.2">
<path style="mix-blend-mode:multiply" opacity="0.2" d="M148.36 37.1294C148.313 38.2819 148.156 39.4271 147.89 40.5494C147.69 41.3194 147.38 42.1194 147.89 42.8394C147.921 42.888 147.967 42.9256 148.021 42.9471C148.075 42.9685 148.134 42.9729 148.19 42.9594C150.19 42.2394 149.19 38.4494 148.49 37.0994H148.39L148.36 37.1294Z" fill="url(#paint21_linear_64_221)"/>
</g>
<g style="mix-blend-mode:multiply" opacity="0.2">
<path style="mix-blend-mode:multiply" opacity="0.2" d="M88.15 30.7194C87.9694 31.4374 87.8556 32.1705 87.81 32.9094C87.66 33.5394 87.48 34.1694 87.28 34.7894C86.8468 36.0532 86.2661 37.2616 85.55 38.3894C85.4773 38.5129 85.4341 38.6515 85.4238 38.7943C85.4135 38.9372 85.4363 39.0806 85.4905 39.2132C85.5447 39.3458 85.6288 39.4641 85.7363 39.5588C85.8438 39.6536 85.9717 39.7222 86.11 39.7594C86.3004 39.792 86.4962 39.7687 86.6736 39.6924C86.8511 39.6161 87.0027 39.49 87.11 39.3294C88.0388 37.9526 88.6313 36.377 88.84 34.7294C88.99 33.5394 89.03 31.5494 88.29 30.5194C88.276 30.496 88.2548 30.4775 88.2297 30.4668C88.2046 30.456 88.1767 30.4534 88.15 30.4594C87.99 30.4594 87.99 30.4594 87.93 30.6494C87.87 30.8394 88.04 30.7994 88.1 30.7194H88.15Z" fill="url(#paint22_linear_64_221)"/>
</g>
<g style="mix-blend-mode:multiply" opacity="0.2">
<path style="mix-blend-mode:multiply" opacity="0.2" d="M85.03 25.5194C85.7113 25.6637 86.3324 26.0126 86.8101 26.5194C87.0382 26.8198 87.2108 27.1584 87.32 27.5194C87.3667 27.767 87.489 27.9941 87.67 28.1694C87.6897 28.1909 87.7137 28.2081 87.7404 28.2199C87.767 28.2316 87.7958 28.2377 87.825 28.2377C87.8542 28.2377 87.883 28.2316 87.9097 28.2199C87.9364 28.2081 87.9604 28.1909 87.98 28.1694C88.43 27.5394 87.62 26.5994 87.14 26.1694C86.8566 25.9125 86.5222 25.7183 86.1586 25.5994C85.7951 25.4805 85.4105 25.4396 85.03 25.4794V25.5194Z" fill="url(#paint23_linear_64_221)"/>
</g>
<g style="mix-blend-mode:multiply" opacity="0.2">
<path style="mix-blend-mode:multiply" opacity="0.2" d="M126.49 56.5794C125.69 58.0894 124.96 59.6894 125.41 61.4294C125.76 62.7594 126.64 64.0294 128.13 63.9094C128.19 63.9084 128.249 63.8917 128.302 63.8611C128.354 63.8304 128.397 63.7867 128.427 63.7344C128.457 63.682 128.473 63.6227 128.474 63.5623C128.474 63.5018 128.459 63.4423 128.43 63.3894C127.99 62.5094 127.29 61.8094 126.91 60.9094C126.382 59.5453 126.278 58.0538 126.61 56.6294C126.604 56.6191 126.595 56.6105 126.584 56.6046C126.574 56.5986 126.562 56.5955 126.55 56.5955C126.538 56.5955 126.526 56.5986 126.515 56.6046C126.505 56.6105 126.496 56.6191 126.49 56.6294V56.5794Z" fill="url(#paint24_linear_64_221)"/>
</g>
<g style="mix-blend-mode:multiply" opacity="0.2">
<path style="mix-blend-mode:multiply" opacity="0.2" d="M124.03 103.499C120.22 106.139 116.65 112.749 120.68 116.769C120.725 116.812 120.782 116.841 120.843 116.852C120.905 116.863 120.968 116.856 121.025 116.831C121.083 116.807 121.132 116.766 121.166 116.714C121.201 116.663 121.22 116.602 121.22 116.539C121.29 114.479 120.74 112.479 120.99 110.409C121.275 107.861 122.368 105.471 124.11 103.589C124.11 103.539 124.11 103.449 124.03 103.499V103.499Z" fill="url(#paint25_linear_64_221)"/>
</g>
<g style="mix-blend-mode:multiply" opacity="0.2">
<path style="mix-blend-mode:multiply" opacity="0.2" d="M121.91 119.489C121.789 120.798 121.988 122.115 122.49 123.329C122.554 123.434 122.643 123.52 122.75 123.58C122.857 123.639 122.978 123.67 123.1 123.669C123.95 123.669 123.79 122.739 123.53 122.229C123.06 121.299 122.53 120.379 122.05 119.449C122.043 119.437 122.033 119.426 122.021 119.419C122.008 119.412 121.994 119.408 121.98 119.408C121.966 119.408 121.952 119.412 121.939 119.419C121.927 119.426 121.917 119.437 121.91 119.449V119.489Z" fill="url(#paint26_linear_64_221)"/>
</g>
<g style="mix-blend-mode:screen" opacity="0.5">
<g style="mix-blend-mode:screen" opacity="0.5">
<path d="M75.4299 69.4194C75.1317 70.9817 74.5082 72.4638 73.5999 73.7694C72.6716 75.1812 71.5001 76.417 70.1399 77.4194C69.8699 77.6294 70.1399 78.0994 70.4199 78.0794C73.2099 77.9594 74.9499 75.6494 75.5999 73.0794C75.7399 72.5594 76.3499 68.8094 75.3899 69.2494V69.3694L75.4299 69.4194Z" fill="#8A2612"/>
</g>
</g>
<g style="mix-blend-mode:screen" opacity="0.5">
<g style="mix-blend-mode:screen" opacity="0.5">
<path d="M73.6801 64.1394C74.1727 65.5939 74.2076 67.1645 73.78 68.6394C73.768 68.6779 73.7693 68.7194 73.7836 68.7571C73.798 68.7948 73.8247 68.8266 73.8593 68.8474C73.8939 68.8681 73.9345 68.8767 73.9745 68.8716C74.0145 68.8665 74.0517 68.8481 74.08 68.8194C75.34 67.5294 74.5201 65.4694 73.7901 64.0894C73.7901 64.0194 73.6601 64.0894 73.6801 64.1394V64.1394Z" fill="#8A2612"/>
</g>
</g>
<g style="mix-blend-mode:screen" opacity="0.5">
<g style="mix-blend-mode:screen" opacity="0.5">
<path d="M19.3499 76.7494C17.1899 80.2194 16.6499 87.7494 21.7399 89.1794C21.7925 89.1936 21.8479 89.1937 21.9005 89.1796C21.9532 89.1655 22.0012 89.1378 22.0397 89.0993C22.0783 89.0608 22.106 89.0128 22.1201 88.9601C22.1341 88.9075 22.1341 88.852 22.1199 88.7994C21.5699 87.1794 20.3898 85.9094 19.7498 84.3194C18.8242 81.9134 18.7257 79.2677 19.4699 76.7994C19.4701 76.7854 19.4661 76.7717 19.4584 76.76C19.4507 76.7483 19.4397 76.7392 19.4268 76.7338C19.4139 76.7284 19.3996 76.727 19.3859 76.7298C19.3722 76.7326 19.3597 76.7394 19.3499 76.7494V76.7494Z" fill="#8A2612"/>
</g>
</g>
<g style="mix-blend-mode:screen" opacity="0.5">
<g style="mix-blend-mode:screen" opacity="0.5">
<path d="M21.1899 74.3594C20.3081 75.6782 19.9846 77.2926 20.29 78.8494C20.29 78.9894 20.51 78.9394 20.52 78.8494C20.6171 77.3535 20.8718 75.8719 21.28 74.4294C21.2759 74.421 21.2695 74.4138 21.2615 74.4088C21.2536 74.4039 21.2444 74.4012 21.235 74.4012C21.2256 74.4012 21.2164 74.4039 21.2084 74.4088C21.2005 74.4138 21.194 74.421 21.1899 74.4294V74.3594Z" fill="#8A2612"/>
</g>
</g>
<path style="mix-blend-mode:screen" d="M129.22 15.6194C119 20.3894 121.69 29.3794 119.74 38.2494C116.18 54.4394 105.29 84.9594 93.8898 94.0194C80.8898 104.349 57.8098 117.879 40.6498 114.299C37.9798 113.739 25.5598 109.809 22.9098 108.719C18.5498 106.919 6.67983 109.719 3.33983 105.719C2.97983 105.279 2.15985 104.289 1.04985 103.009C1.04985 102.769 0.979818 102.529 0.949818 102.289C0.93936 102.206 0.93936 102.122 0.949818 102.039C0.829818 101.119 0.72982 100.189 0.63982 99.2594C0.57982 98.6094 0.519838 97.9594 0.469838 97.3094C0.419838 96.6594 0.379842 96.1194 0.349842 95.5194C0.349842 95.3494 0.349842 95.1694 0.349842 94.9894C0.349842 94.4594 0.289835 93.9194 0.279835 93.3794C0.269835 92.8394 0.279835 92.0694 0.279835 91.3794C0.279835 91.0894 0.279835 90.7994 0.279835 90.5094C0.261134 68.6765 8.254 47.5956 22.7431 31.2633C37.2322 14.9311 57.2103 4.48282 78.8898 1.89941C80.8898 1.65941 82.8498 1.48942 84.7698 1.38942C114.36 1.53942 134.43 13.1794 129.22 15.6194Z" fill="url(#paint27_linear_64_221)"/>
<path style="mix-blend-mode:screen" opacity="0.5" d="M129.22 15.6194C119 20.3894 121.69 29.3794 119.74 38.2494C116.18 54.4394 105.29 84.9594 93.8898 94.0194C80.8898 104.349 57.8098 117.879 40.6498 114.299C37.9798 113.739 25.5598 109.809 22.9098 108.719C18.5498 106.919 6.67983 109.719 3.33983 105.719C2.97983 105.279 2.15985 104.289 1.04985 103.009C1.04985 102.769 0.979818 102.529 0.949818 102.289C0.93936 102.206 0.93936 102.122 0.949818 102.039C0.829818 101.119 0.72982 100.189 0.63982 99.2594C0.57982 98.6094 0.519838 97.9594 0.469838 97.3094C0.419838 96.6594 0.379842 96.1194 0.349842 95.5194C0.349842 95.3494 0.349842 95.1694 0.349842 94.9894C0.349842 94.4594 0.289835 93.9194 0.279835 93.3794C0.269835 92.8394 0.279835 92.0694 0.279835 91.3794C0.279835 91.0894 0.279835 90.7994 0.279835 90.5094C0.261134 68.6765 8.254 47.5956 22.7431 31.2633C37.2322 14.9311 57.2103 4.48282 78.8898 1.89941C80.8898 1.65941 82.8498 1.48942 84.7698 1.38942C114.36 1.53942 134.43 13.1794 129.22 15.6194Z" fill="url(#paint28_linear_64_221)"/>
<g style="mix-blend-mode:multiply" opacity="0.2">
<path style="mix-blend-mode:multiply" opacity="0.2" d="M178.69 90.5494C178.747 102.27 176.495 113.887 172.063 124.737C167.63 135.587 161.104 145.458 152.857 153.786C144.61 162.114 134.803 168.736 123.996 173.274C113.19 177.812 101.595 180.177 89.8749 180.234C78.1545 180.292 66.5375 178.04 55.6874 173.607C44.8372 169.175 34.9663 162.649 26.6383 154.401C9.81911 137.745 0.305311 115.09 0.189941 91.4194C5.41694 94.1811 9.76229 98.3566 12.73 103.469C14.59 106.699 15.94 110.369 18.73 112.849C22.84 116.509 28.89 116.639 34.1 118.409C40.32 120.529 46.0199 125.209 52.5699 124.679C59.1199 124.149 64.02 118.589 69.77 115.359C76.71 111.479 85.1399 110.979 92.1299 107.189C102.89 101.349 108.86 88.5194 120.19 83.8694C126.11 81.4394 133.53 81.1594 137.34 76.0194C139.98 72.4494 139.98 67.6094 141.65 63.4994C143.54 58.8694 147.49 55.3594 149.72 50.8694C153.88 42.5094 151.37 32.5994 148.48 23.6194C153.742 28.2709 158.441 33.5235 162.48 39.2694C173.053 54.2765 178.717 72.1915 178.69 90.5494V90.5494Z" fill="url(#paint29_linear_64_221)"/>
</g>
<g style="mix-blend-mode:multiply" opacity="0.2">
<path style="mix-blend-mode:multiply" opacity="0.2" d="M178.69 90.5494C178.685 104.761 175.288 118.765 168.782 131.4C162.276 144.034 152.848 154.933 141.282 163.19C129.716 171.447 116.346 176.825 102.284 178.875C88.2211 180.926 73.8723 179.59 60.4299 174.979L60.2799 174.909C52.9299 171.349 45.5399 167.769 38.3999 163.789C20.2137 151.138 7.38212 132.176 2.3999 110.589C4.5999 113.969 6.18993 117.749 8.73993 120.869C14.9899 128.529 25.5499 130.719 34.3199 135.289C39.5299 137.999 44.3199 141.699 50.0599 143.049C54.0599 144.049 58.2699 143.739 62.3799 143.459L85.5899 141.899C92.2399 141.459 99.9699 140.379 103.31 134.609C105.15 131.449 105.21 127.449 107.23 124.399C111.53 117.909 121.34 119.299 128.48 116.199C136.29 112.819 140.41 104.199 147.29 99.1994C151.06 96.4594 155.67 94.7894 158.77 91.3094C162.51 87.1094 163.32 81.0094 162.77 75.4094C162.22 69.8094 160.44 64.4094 159.71 58.8294C158.85 52.2094 159.55 45.2094 162.46 39.2694C173.041 54.2742 178.711 72.1894 178.69 90.5494V90.5494Z" fill="url(#paint30_linear_64_221)"/>
</g>
<g style="mix-blend-mode:multiply" opacity="0.2">
<path style="mix-blend-mode:multiply" opacity="0.2" d="M178.69 90.5494C178.691 109.032 172.953 127.06 162.269 142.142C151.585 157.224 136.483 168.618 119.046 174.749C101.61 180.88 82.6999 181.447 64.9277 176.37C47.1555 171.294 31.3976 160.825 19.8301 146.409L46.0301 159.609C48.4088 160.905 50.9029 161.976 53.4801 162.809C56.7001 163.749 60.1201 163.939 63.3401 164.919C66.2801 165.819 68.9901 167.349 71.8701 168.439C79.4601 171.329 87.8701 171.059 95.8701 169.969C104.527 168.809 113.039 166.751 121.27 163.829C127.71 161.549 134.18 158.589 138.68 153.449C142.23 149.389 144.3 144.269 147.39 139.859C154.28 130.029 166.23 123.679 170.19 112.349C172.74 105.049 171.43 97.0494 171.19 89.3494C171.01 82.6794 172.04 75.3494 176.31 70.4194C176.31 70.5194 176.31 70.6094 176.38 70.7094C177.891 77.2153 178.666 83.8704 178.69 90.5494Z" fill="url(#paint31_linear_64_221)"/>
</g>
</g>
<defs>
<linearGradient id="paint0_linear_64_221" x1="24.6099" y1="35.7794" x2="160.96" y2="150.989" gradientUnits="userSpaceOnUse">
<stop stop-color="#B04322"/>
<stop offset="1" stop-color="#7E0E02"/>
</linearGradient>
<linearGradient id="paint1_linear_64_221" x1="24.6099" y1="35.7794" x2="160.96" y2="150.989" gradientUnits="userSpaceOnUse">
<stop stop-color="#B04322"/>
<stop offset="1" stop-color="#7E0E02"/>
</linearGradient>
<linearGradient id="paint2_linear_64_221" x1="24.6099" y1="35.7794" x2="160.96" y2="150.989" gradientUnits="userSpaceOnUse">
<stop stop-color="#B04322"/>
<stop offset="1" stop-color="#7E0E02"/>
</linearGradient>
<linearGradient id="paint3_linear_64_221" x1="24.6099" y1="35.7794" x2="160.96" y2="150.989" gradientUnits="userSpaceOnUse">
<stop stop-color="#B04322"/>
<stop offset="1" stop-color="#7E0E02"/>
</linearGradient>
<linearGradient id="paint4_linear_64_221" x1="128.73" y1="48.0894" x2="143.87" y2="48.0894" gradientUnits="userSpaceOnUse">
<stop stop-color="#92210F"/>
<stop offset="0.99" stop-color="#920902"/>
</linearGradient>
<linearGradient id="paint5_linear_64_221" x1="45.28" y1="32.1294" x2="86" y2="32.1294" gradientUnits="userSpaceOnUse">
<stop stop-color="#92210F"/>
<stop offset="0.99" stop-color="#920902"/>
</linearGradient>
<linearGradient id="paint6_linear_64_221" x1="123.5" y1="118.329" x2="154.73" y2="118.329" gradientUnits="userSpaceOnUse">
<stop stop-color="#92210F"/>
<stop offset="0.99" stop-color="#920902"/>
</linearGradient>
<linearGradient id="paint7_linear_64_221" x1="0.179835" y1="50.2894" x2="151.08" y2="50.2894" gradientUnits="userSpaceOnUse">
<stop stop-color="#B04322"/>
<stop offset="1" stop-color="#7E0E02"/>
</linearGradient>
<linearGradient id="paint8_linear_64_221" x1="14.6899" y1="52.4494" x2="23.7799" y2="52.4494" gradientUnits="userSpaceOnUse">
<stop stop-color="#B04322"/>
<stop offset="1" stop-color="#7E0E02"/>
</linearGradient>
<linearGradient id="paint9_linear_64_221" x1="23.84" y1="41.9194" x2="27.94" y2="41.9194" gradientUnits="userSpaceOnUse">
<stop stop-color="#B04322"/>
<stop offset="1" stop-color="#7E0E02"/>
</linearGradient>
<linearGradient id="paint10_linear_64_221" x1="82.23" y1="13.0494" x2="92.96" y2="13.0494" gradientUnits="userSpaceOnUse">
<stop stop-color="#B04322"/>
<stop offset="1" stop-color="#7E0E02"/>
</linearGradient>
<linearGradient id="paint11_linear_64_221" x1="96.2599" y1="13.9494" x2="103.27" y2="13.9494" gradientUnits="userSpaceOnUse">
<stop stop-color="#B04322"/>
<stop offset="1" stop-color="#7E0E02"/>
</linearGradient>
<linearGradient id="paint12_linear_64_221" x1="132.68" y1="22.1394" x2="139.18" y2="22.1394" gradientUnits="userSpaceOnUse">
<stop stop-color="#B04322"/>
<stop offset="1" stop-color="#7E0E02"/>
</linearGradient>
<linearGradient id="paint13_linear_64_221" x1="28.0998" y1="114.819" x2="39.8998" y2="114.819" gradientUnits="userSpaceOnUse">
<stop stop-color="#92210F"/>
<stop offset="0.99" stop-color="#920902"/>
</linearGradient>
<linearGradient id="paint14_linear_64_221" x1="42.93" y1="118.259" x2="47.94" y2="118.259" gradientUnits="userSpaceOnUse">
<stop stop-color="#92210F"/>
<stop offset="0.99" stop-color="#920902"/>
</linearGradient>
<linearGradient id="paint15_linear_64_221" x1="54.3" y1="117.899" x2="60.55" y2="117.899" gradientUnits="userSpaceOnUse">
<stop stop-color="#92210F"/>
<stop offset="0.99" stop-color="#920902"/>
</linearGradient>
<linearGradient id="paint16_linear_64_221" x1="65.93" y1="111.099" x2="80.2" y2="111.099" gradientUnits="userSpaceOnUse">
<stop stop-color="#92210F"/>
<stop offset="0.99" stop-color="#920902"/>
</linearGradient>
<linearGradient id="paint17_linear_64_221" x1="70.3999" y1="105.919" x2="78.5399" y2="105.919" gradientUnits="userSpaceOnUse">
<stop stop-color="#92210F"/>
<stop offset="0.99" stop-color="#920902"/>
</linearGradient>
<linearGradient id="paint18_linear_64_221" x1="85.99" y1="101.909" x2="98.58" y2="101.909" gradientUnits="userSpaceOnUse">
<stop stop-color="#92210F"/>
<stop offset="0.99" stop-color="#920902"/>
</linearGradient>
<linearGradient id="paint19_linear_64_221" x1="103.52" y1="89.1594" x2="114.99" y2="89.1594" gradientUnits="userSpaceOnUse">
<stop stop-color="#92210F"/>
<stop offset="0.99" stop-color="#920902"/>
</linearGradient>
<linearGradient id="paint20_linear_64_221" x1="144.89" y1="49.5594" x2="149" y2="49.5594" gradientUnits="userSpaceOnUse">
<stop stop-color="#92210F"/>
<stop offset="0.99" stop-color="#920902"/>
</linearGradient>
<linearGradient id="paint21_linear_64_221" x1="147.62" y1="40.0194" x2="149.16" y2="40.0194" gradientUnits="userSpaceOnUse">
<stop stop-color="#92210F"/>
<stop offset="0.99" stop-color="#920902"/>
</linearGradient>
<linearGradient id="paint22_linear_64_221" x1="85.63" y1="35.1294" x2="88.9" y2="35.1294" gradientUnits="userSpaceOnUse">
<stop stop-color="#92210F"/>
<stop offset="0.99" stop-color="#920902"/>
</linearGradient>
<linearGradient id="paint23_linear_64_221" x1="85.04" y1="26.8294" x2="88.32" y2="26.8294" gradientUnits="userSpaceOnUse">
<stop stop-color="#92210F"/>
<stop offset="0.99" stop-color="#920902"/>
</linearGradient>
<linearGradient id="paint24_linear_64_221" x1="125.43" y1="60.2294" x2="128.35" y2="60.2294" gradientUnits="userSpaceOnUse">
<stop stop-color="#92210F"/>
<stop offset="0.99" stop-color="#920902"/>
</linearGradient>
<linearGradient id="paint25_linear_64_221" x1="119.44" y1="110.169" x2="124.34" y2="110.169" gradientUnits="userSpaceOnUse">
<stop stop-color="#92210F"/>
<stop offset="0.99" stop-color="#920902"/>
</linearGradient>
<linearGradient id="paint26_linear_64_221" x1="121.49" y1="121.539" x2="123.67" y2="121.539" gradientUnits="userSpaceOnUse">
<stop stop-color="#92210F"/>
<stop offset="0.99" stop-color="#920902"/>
</linearGradient>
<linearGradient id="paint27_linear_64_221" x1="10.6398" y1="4.10942" x2="98.5198" y2="91.3594" gradientUnits="userSpaceOnUse">
<stop stop-color="#C03C3D"/>
<stop offset="0.48" stop-color="#5E162F" stop-opacity="0.37"/>
<stop offset="0.78" stop-color="#230027" stop-opacity="0"/>
</linearGradient>
<linearGradient id="paint28_linear_64_221" x1="10.6398" y1="4.10942" x2="98.5198" y2="91.3594" gradientUnits="userSpaceOnUse">
<stop stop-color="#C03C3D"/>
<stop offset="0.48" stop-color="#5E162F" stop-opacity="0.37"/>
<stop offset="0.78" stop-color="#230027" stop-opacity="0"/>
</linearGradient>
<linearGradient id="paint29_linear_64_221" x1="0.189941" y1="101.709" x2="178.69" y2="101.709" gradientUnits="userSpaceOnUse">
<stop stop-color="#92210F"/>
<stop offset="0.99" stop-color="#920902"/>
</linearGradient>
<linearGradient id="paint30_linear_64_221" x1="2.4499" y1="109.539" x2="178.69" y2="109.539" gradientUnits="userSpaceOnUse">
<stop stop-color="#92210F"/>
<stop offset="0.99" stop-color="#920902"/>
</linearGradient>
<linearGradient id="paint31_linear_64_221" x1="19.8301" y1="125.099" x2="178.69" y2="125.099" gradientUnits="userSpaceOnUse">
<stop stop-color="#92210F"/>
<stop offset="0.99" stop-color="#920902"/>
</linearGradient>
<clipPath id="clip0_64_221">
<rect width="179" height="180" fill="white" transform="translate(0 0.279419)"/>
</clipPath>
</defs>
</svg>
