<svg width="41" height="42" viewBox="0 0 41 42" fill="none" xmlns="http://www.w3.org/2000/svg">
<path style="mix-blend-mode:screen" opacity="0.15" d="M37.1201 29.3183C36.8276 30.0046 36.4937 30.6725 36.1201 31.3183C35.7449 31.9445 35.3342 32.5488 34.8901 33.1282C34.4069 33.7558 33.8824 34.3504 33.3202 34.9082C33.1402 35.0882 32.9601 35.2683 32.7601 35.4383C31.9048 36.2339 30.9737 36.9439 29.9801 37.5582L29.6701 37.7482C27.2185 39.2136 24.4636 40.0973 21.617 40.3313C18.7705 40.5653 15.9081 40.1435 13.2501 39.0982C12.9901 38.9982 12.7301 38.8882 12.4701 38.7682C10.2508 37.794 8.24843 36.3865 6.58017 34.6282C6.22113 34.2504 5.88709 33.8495 5.58017 33.4283V33.4283C4.37892 31.9455 3.41408 30.2859 2.72006 28.5083C2.64006 28.2983 2.56008 28.0882 2.49008 27.8782C2.18019 27.0086 1.93947 26.1158 1.77011 25.2083C1.67011 24.7083 1.60014 24.2083 1.55014 23.7083C1.19851 20.6155 1.63901 17.484 2.83017 14.6083C2.90017 14.4283 2.97014 14.2583 3.05014 14.0783L3.22006 13.7183C3.40007 13.3283 3.60014 12.9483 3.80014 12.5783C4.00014 12.2083 4.17008 11.9483 4.36008 11.6483C5.39902 10.0022 6.69172 8.53069 8.19016 7.28825L8.50009 7.03825C10.4554 5.48649 12.7011 4.34121 15.1053 3.66975C17.5095 2.99829 20.0237 2.81418 22.5001 3.12825C25.4687 3.50874 28.3024 4.59657 30.763 6.30021C33.2237 8.00386 35.2392 10.2735 36.6401 12.9182C36.6947 13.0004 36.7416 13.0874 36.7801 13.1783C37.9815 15.5327 38.6635 18.1176 38.7801 20.7583C38.7801 21.2116 38.7801 21.6616 38.7801 22.1083C38.7801 22.2283 38.7801 22.3483 38.7801 22.4583C38.7734 22.8327 38.7467 23.2066 38.7002 23.5783C38.4923 25.5654 37.9584 27.5047 37.1201 29.3183V29.3183Z" fill="url(#paint0_radial_64_359)"/>
<g style="mix-blend-mode:luminosity">
<path style="mix-blend-mode:luminosity" d="M38.61 29.1483C38.2862 29.8781 37.9154 30.5863 37.5 31.2683C37.1064 31.9365 36.6688 32.578 36.1901 33.1883C35.6853 33.8593 35.1303 34.4911 34.5301 35.0783C34.3431 35.2749 34.1462 35.4618 33.9401 35.6383C33.0358 36.4794 32.051 37.2296 31 37.8783C30.8937 37.9507 30.7836 38.0175 30.6701 38.0783C28.0765 39.628 25.1623 40.5628 22.1512 40.8107C19.14 41.0585 16.1122 40.613 13.3001 39.5083L12.47 39.1683C10.121 38.1305 8.00032 36.6386 6.23002 34.7783C5.83705 34.3784 5.46968 33.9543 5.13004 33.5083V33.5083C3.86629 31.9411 2.85417 30.1867 2.13004 28.3083C2.04004 28.0883 1.96005 27.8583 1.89005 27.6383C1.56016 26.7198 1.30268 25.7769 1.12003 24.8183C1.02003 24.2883 0.940053 23.7583 0.890053 23.2283C0.520135 19.9549 0.988099 16.6412 2.25004 13.5983C2.31004 13.4083 2.40002 13.2183 2.48002 13.0283C2.56002 12.8383 2.59007 12.7783 2.66007 12.6483C2.85007 12.2383 3.05006 11.8383 3.27006 11.4483C3.49006 11.0583 3.66002 10.7783 3.86002 10.4483C4.96197 8.70724 6.33227 7.15137 7.92008 5.83825L8.24003 5.56825C10.3139 3.92625 12.695 2.71509 15.2433 2.00587C17.7917 1.29665 20.4561 1.10367 23.0801 1.43826C24.9938 1.67526 26.8612 2.19772 28.62 2.98825C32.662 4.77622 35.9815 7.87718 38.0401 11.7883C38.1039 11.8772 38.1544 11.9748 38.1901 12.0783C39.4671 14.5613 40.1969 17.2893 40.3301 20.0783C40.36 20.5545 40.36 21.0321 40.3301 21.5083C40.3404 21.6314 40.3404 21.7551 40.3301 21.8783C40.3237 22.276 40.2969 22.6732 40.25 23.0683C40.0345 25.17 39.4807 27.2232 38.61 29.1483V29.1483Z" fill="url(#paint1_linear_64_359)"/>
<path style="mix-blend-mode:screen" opacity="0.41" d="M14.5701 4.43825C12.3829 4.94727 10.4228 6.15912 8.99003 7.88825C5.61003 11.4882 3.12012 15.8883 3.20012 20.8883C3.33166 23.6841 4.17266 26.4005 5.64396 28.7815C7.11527 31.1625 9.16838 33.1299 11.61 34.4983C12.8648 35.2439 14.2491 35.746 15.6901 35.9783C17.953 36.1911 20.2208 35.6268 22.12 34.3782C24.2365 33.1645 26.0573 31.4963 27.4511 29.4938C28.8449 27.4913 29.777 25.2045 30.1801 22.7983C30.7697 18.2731 29.7845 13.6829 27.3901 9.79825C25.2901 6.25825 18.7801 3.69825 14.5701 4.43825Z" fill="url(#paint2_linear_64_359)"/>
<g style="mix-blend-mode:multiply" opacity="0.37">
<g style="mix-blend-mode:multiply" opacity="0.37">
<path d="M37.5001 31.3183C37.1064 31.9865 36.6689 32.628 36.1902 33.2382C35.5702 33.3782 34.9402 33.4883 34.3102 33.5783C33.3883 33.6999 32.46 33.7667 31.5302 33.7783C30.5921 33.8074 29.6576 33.6511 28.7802 33.3183C27.0002 32.6783 25.1902 32.3183 23.4102 31.8583C21.6226 31.3529 19.8633 30.7521 18.1401 30.0582C16.4894 29.3903 14.9029 28.5736 13.4001 27.6183C12.6901 27.1183 12.0402 26.4983 11.3102 26.0083C10.6298 25.4844 9.7988 25.1933 8.94019 25.1783C8.49019 25.1783 8.06015 25.2883 7.65015 25.2783C7.25119 25.2639 6.85518 25.2035 6.47009 25.0983C5.68788 24.927 4.89663 24.8002 4.1001 24.7183C3.10088 24.6293 2.09496 24.6494 1.1001 24.7783C1.0001 24.2483 0.920117 23.7183 0.870117 23.1883C1.81998 22.6415 2.85411 22.2563 3.93018 22.0483C4.89797 21.8588 5.88522 21.7883 6.87012 21.8382C7.35994 21.8291 7.84757 21.907 8.31018 22.0683C8.76451 22.2721 9.19952 22.5165 9.61011 22.7983C11.2601 23.7983 13.2201 23.7983 15.0201 24.2883C16.6737 24.9268 18.2724 25.6993 19.8002 26.5982C21.2708 27.4432 22.8135 28.156 24.4102 28.7283C26.0016 29.3648 27.6963 29.7038 29.4102 29.7283C29.8314 29.73 30.2521 29.7567 30.6702 29.8082C31.0882 29.8665 31.5022 29.95 31.9102 30.0582L33.1702 30.3283L34.4302 30.5983L37.5001 31.3183Z" fill="#B96E4F"/>
</g>
<g style="mix-blend-mode:multiply" opacity="0.37">
<path d="M34.5302 35.0783C34.3432 35.2749 34.1463 35.4618 33.9402 35.6383L33.1401 35.7183L31.8402 35.8283C31.5945 35.8397 31.3593 35.931 31.1702 36.0882C30.9502 36.2282 30.7201 36.4683 30.4901 36.5983C30.2956 36.7263 30.0587 36.7729 29.8302 36.7283C29.608 36.7179 29.3871 36.6878 29.1702 36.6383C28.7266 36.5438 28.2942 36.4031 27.8801 36.2183C27.0854 35.8046 26.2268 35.5274 25.3402 35.3983C24.4337 35.3805 23.5289 35.4848 22.6501 35.7083C20.8842 35.6235 19.1533 35.1848 17.5602 34.4183C15.9722 33.6834 14.3181 33.1008 12.6201 32.6783C11.7697 32.4655 10.9085 32.2986 10.0402 32.1783C9.17016 32.0283 8.29018 31.8783 7.43018 31.6783C7.01018 31.5583 6.58018 31.4283 6.18018 31.2783L5.56018 31.0583C5.44576 31.0265 5.33928 30.9709 5.24792 30.8951C5.15657 30.8192 5.08238 30.7249 5.03015 30.6183C4.89015 30.3883 4.77013 30.0883 4.63013 29.8783C4.48555 29.7028 4.30022 29.5654 4.09021 29.4783L2.97009 28.8283L2.09021 28.3083C2.00021 28.0883 1.9201 27.8583 1.8501 27.6383C2.3201 27.8383 2.78012 28.0282 3.25012 28.1982L4.4801 28.6083C4.68431 28.6988 4.90704 28.7399 5.13013 28.7283C5.38013 28.7283 5.67018 28.5782 5.93018 28.5182C6.03368 28.4707 6.14621 28.446 6.26013 28.446C6.37405 28.446 6.4867 28.4707 6.59021 28.5182L7.17017 28.7783C7.55017 28.9483 7.93018 29.1483 8.31018 29.3583C9.06018 29.7483 9.81018 30.1783 10.5602 30.6183C11.3167 31.03 12.0982 31.394 12.9001 31.7083C13.7082 31.9956 14.5373 32.2196 15.3801 32.3783C16.2301 32.5283 17.0902 32.5683 17.9502 32.6383C18.8102 32.7083 19.6801 32.6383 20.5201 32.7783C20.9501 32.7783 21.3702 32.8683 21.7902 32.9283C22.2142 32.9827 22.6283 33.0972 23.0201 33.2682C23.7761 33.7272 24.5996 34.0647 25.4602 34.2682C26.3386 34.3275 27.2203 34.2223 28.0602 33.9583C28.482 33.8352 28.9135 33.7482 29.3501 33.6982C29.5598 33.6834 29.7704 33.6834 29.9801 33.6982C30.0944 33.6917 30.209 33.7077 30.3171 33.7454C30.4252 33.7832 30.5247 33.8419 30.6101 33.9183C30.8101 34.0583 31.0201 34.2983 31.2201 34.4683C31.3996 34.6251 31.6231 34.7229 31.8601 34.7483L33.1401 34.9183L34.5302 35.0783Z" fill="#B96E4F"/>
</g>
<g style="mix-blend-mode:multiply" opacity="0.37">
<path d="M38.1501 12.0882C37.1254 12.2035 36.0888 12.1528 35.0802 11.9383C33.6323 11.6265 32.2033 11.2325 30.8002 10.7583C29.429 10.278 28.0113 9.9428 26.5702 9.75826C25.1182 9.61227 23.6595 9.54218 22.2002 9.54826C20.7302 9.54826 19.2601 9.54826 17.7701 9.54826C16.2767 9.60392 14.7816 9.49999 13.3102 9.23825C11.8183 8.90033 10.4272 8.21509 9.25012 7.23825C8.73285 6.80468 8.27253 6.30741 7.88013 5.75826L8.2002 5.48825C8.61818 5.97186 9.09132 6.40482 9.61011 6.77825C10.7748 7.61329 12.0833 8.22684 13.4701 8.58825C14.8689 8.99581 16.3138 9.2243 17.7701 9.26825C19.2462 9.27812 20.7217 9.20802 22.1902 9.05825C23.672 8.90638 25.1639 8.87962 26.6501 8.97826C28.1469 9.10182 29.6219 9.4143 31.0402 9.90825C32.4502 10.3682 33.8102 10.9083 35.2102 11.2883C36.1183 11.5474 37.0559 11.6886 38.0001 11.7083C38.0728 11.8248 38.1236 11.9535 38.1501 12.0882V12.0882Z" fill="#B96E4F"/>
</g>
<g style="mix-blend-mode:multiply" opacity="0.37">
<path d="M40.2902 20.0983C40.32 20.5744 40.32 21.0521 40.2902 21.5283C37.8411 19.9956 35.257 18.6902 32.5702 17.6283C30.9408 16.9461 29.271 16.365 27.5702 15.8883C25.8502 15.4583 24.1102 15.0983 22.3002 14.8283C20.4766 14.5913 18.6334 14.5444 16.8002 14.6883C14.9296 14.9329 13.0465 15.0698 11.1602 15.0983C9.20259 14.9738 7.30154 14.3915 5.61011 13.3983C4.70861 12.8638 3.89848 12.1886 3.21021 11.3983C3.40021 11.0583 3.60017 10.7283 3.80017 10.3983C6.11347 11.8397 8.70184 12.7831 11.4001 13.1683C13.1635 13.5964 14.9664 13.841 16.7802 13.8983C18.635 13.88 20.4877 13.7632 22.3302 13.5483C23.2738 13.4547 24.2223 13.4213 25.1702 13.4482C26.1261 13.4872 27.0782 13.5908 28.0201 13.7583C29.9116 14.0612 31.7588 14.5952 33.5201 15.3483C36.0539 16.4944 38.3503 18.1056 40.2902 20.0983V20.0983Z" fill="#B96E4F"/>
</g>
<g style="mix-blend-mode:multiply" opacity="0.37">
<path d="M40.3002 21.8983C40.2938 22.296 40.267 22.6932 40.2201 23.0882C39.3901 23.4082 38.5502 23.7182 37.7102 24.0182C36.8702 24.3182 35.7802 24.5183 34.8102 24.7483C33.8402 24.9783 32.8102 25.0383 31.8102 25.1483C30.8102 25.2583 29.8102 25.1483 28.8102 25.1483C27.8102 25.1483 26.8102 25.0082 25.8102 24.9082C24.839 24.6956 23.8577 24.532 22.8701 24.4183L19.9701 23.7883L17.1001 22.9783L14.3102 21.9783L11.5602 20.8183C10.6702 20.3783 9.79016 19.9082 8.91016 19.4482C6.34663 17.8844 4.06194 15.9039 2.15015 13.5882C2.21015 13.3982 2.30013 13.2082 2.38013 13.0182C2.46013 12.8282 2.49018 12.7683 2.56018 12.6383C4.91234 14.4877 7.39919 16.159 10.0001 17.6383C10.8301 18.0883 11.6501 18.5383 12.4701 19.0083C13.2901 19.4783 14.1702 19.8283 15.0302 20.2183C15.8902 20.6083 16.8002 20.8783 17.6902 21.2183L20.4202 21.9883L23.2002 22.5283C24.1316 22.6644 25.0695 22.7512 26.0101 22.7883C27.0101 22.7883 27.9002 22.8483 28.8302 22.8883C29.7602 22.9283 30.7101 22.7983 31.6501 22.7983C32.5901 22.7983 33.5202 22.6782 34.4602 22.6582C35.4002 22.6382 36.3402 22.4683 37.2902 22.3983C38.2402 22.3283 39.1601 22.1083 40.1201 21.9883L40.3002 21.8983Z" fill="#B96E4F"/>
</g>
<g style="mix-blend-mode:multiply" opacity="0.37">
<path d="M31.0001 37.8783C30.8938 37.9507 30.7836 38.0175 30.6702 38.0783C28.7388 37.4312 26.7053 37.1431 24.6702 37.2283C22.0902 37.2283 19.4602 37.5483 16.8202 37.3183C15.5002 37.2083 14.2001 37.0283 12.9001 36.7983C11.5914 36.608 10.2981 36.3239 9.03015 35.9482C8.08014 35.6332 7.15713 35.242 6.27014 34.7783C5.87717 34.3784 5.5098 33.9543 5.17017 33.5083C6.48753 34.208 7.84672 34.8258 9.24011 35.3583C10.4351 35.8705 11.6734 36.2754 12.9402 36.5683C14.2202 36.826 15.5249 36.9401 16.8302 36.9082C19.4202 36.8482 22.0102 36.4283 24.6702 36.4183C26.0185 36.4276 27.361 36.5954 28.6702 36.9183C29.4829 37.1424 30.2653 37.4648 31.0001 37.8783V37.8783Z" fill="#B96E4F"/>
</g>
</g>
</g>
<defs>
<radialGradient id="paint0_radial_64_359" cx="0" cy="0" r="1" gradientUnits="userSpaceOnUse" gradientTransform="translate(20.0444 21.7177) rotate(24.02) scale(18.71)">
<stop stop-color="#1E323B"/>
<stop offset="1" stop-color="#011728"/>
</radialGradient>
<linearGradient id="paint1_linear_64_359" x1="9.99848" y1="-6.5931" x2="32.6357" y2="53.0132" gradientUnits="userSpaceOnUse">
<stop stop-color="#A73C6D"/>
<stop offset="0.12" stop-color="#A23A6A" stop-opacity="0.96"/>
<stop offset="0.29" stop-color="#933362" stop-opacity="0.85"/>
<stop offset="0.48" stop-color="#7B2856" stop-opacity="0.67"/>
<stop offset="0.7" stop-color="#5A1944" stop-opacity="0.41"/>
<stop offset="0.94" stop-color="#2F062E" stop-opacity="0.09"/>
<stop offset="1" stop-color="#230027" stop-opacity="0"/>
</linearGradient>
<linearGradient id="paint2_linear_64_359" x1="9.53777" y1="-1.75137" x2="21.9989" y2="35.8797" gradientUnits="userSpaceOnUse">
<stop stop-color="#A73C6D"/>
<stop offset="0.12" stop-color="#A23A6A" stop-opacity="0.96"/>
<stop offset="0.29" stop-color="#933362" stop-opacity="0.85"/>
<stop offset="0.48" stop-color="#7B2856" stop-opacity="0.67"/>
<stop offset="0.7" stop-color="#5A1944" stop-opacity="0.41"/>
<stop offset="0.94" stop-color="#2F062E" stop-opacity="0.09"/>
<stop offset="1" stop-color="#230027" stop-opacity="0"/>
</linearGradient>
</defs>
</svg>
