<?xml version="1.0" encoding="iso-8859-1"?>
<!-- Generator: Adobe Illustrator 19.0.0, SVG Export Plug-In . SVG Version: 6.00 Build 0)  -->
<svg version="1.1" id="Layer_1" xmlns="http://www.w3.org/2000/svg" xmlns:xlink="http://www.w3.org/1999/xlink" x="0px" y="0px"
	 viewBox="0 0 512 512" style="enable-background:new 0 0 512 512;" xml:space="preserve">
<path style="fill:#FFAC12;" d="M256,512l-50.303-68.324l-77.755,34.064l-9.308-84.372l-84.372-9.31l34.062-77.755L0,256
	l68.324-50.303l-34.064-77.755l84.372-9.308l9.309-84.372l77.754,34.062L256,0l50.303,68.324l77.755-34.064l9.308,84.372
	l84.372,9.309l-34.062,77.754L512,256l-68.324,50.303l34.064,77.755l-84.372,9.308l-9.31,84.372l-77.755-34.062L256,512z"/>
<polygon style="fill:#D89210;" points="512,256 443.677,205.697 477.739,127.942 393.367,118.633 384.059,34.261 306.303,68.324 
	256,0 256,512 306.303,443.677 384.058,477.739 393.367,393.367 477.739,384.059 443.676,306.303 "/>
<path style="fill:#F9D026;" d="M256,383.841c-70.491,0-127.841-57.35-127.841-127.841S185.509,128.159,256,128.159
	S383.841,185.509,383.841,256S326.491,383.841,256,383.841z"/>
<path style="fill:#E7C224;" d="M256,128.159c70.491,0,127.841,57.348,127.841,127.841S326.491,383.841,256,383.841V128.159z"/>
<g>
</g>
<g>
</g>
<g>
</g>
<g>
</g>
<g>
</g>
<g>
</g>
<g>
</g>
<g>
</g>
<g>
</g>
<g>
</g>
<g>
</g>
<g>
</g>
<g>
</g>
<g>
</g>
<g>
</g>
</svg>
